<svg xmlns="http://www.w3.org/2000/svg" xmlns:xlink="http://www.w3.org/1999/xlink" width="1000" height="781"><g transform="translate(-280 -99)"><path d="M300 165.14h380V306.1H300z" stroke="#000" stroke-width="2" fill="none"/><use xlink:href="#a" transform="matrix(1,0,0,1,305,170.14170363797692) translate(0 36.69999999999999)"/><use xlink:href="#b" transform="matrix(1,0,0,1,305,170.14170363797692) translate(10 36.69999999999999)"/><use xlink:href="#c" transform="matrix(1,0,0,1,305,170.14170363797692) translate(77.65 36.69999999999999)"/><use xlink:href="#a" transform="matrix(1,0,0,1,305,170.14170363797692) translate(0 58.29999999999999)"/><use xlink:href="#d" transform="matrix(1,0,0,1,305,170.14170363797692) translate(10 58.29999999999999)"/><use xlink:href="#e" transform="matrix(1,0,0,1,305,170.14170363797692) translate(95.65 58.29999999999999)"/><use xlink:href="#f" transform="matrix(1,0,0,1,305,170.14170363797692) translate(181.95 58.29999999999999)"/><use xlink:href="#g" transform="matrix(1,0,0,1,305,170.14170363797692) translate(269.6 58.29999999999999)"/><use xlink:href="#a" transform="matrix(1,0,0,1,305,170.14170363797692) translate(0 79.9)"/><use xlink:href="#h" transform="matrix(1,0,0,1,305,170.14170363797692) translate(10 79.9)"/><use xlink:href="#i" transform="matrix(1,0,0,1,305,170.14170363797692) translate(81.7 79.9)"/><use xlink:href="#j" transform="matrix(1,0,0,1,305,170.14170363797692) translate(139.4 79.9)"/><use xlink:href="#a" transform="matrix(1,0,0,1,305,170.14170363797692) translate(0 101.5)"/><use xlink:href="#k" transform="matrix(1,0,0,1,305,170.14170363797692) translate(10 101.5)"/><use xlink:href="#l" transform="matrix(1,0,0,1,305,170.14170363797692) translate(97.65 101.5)"/><use xlink:href="#m" transform="matrix(1,0,0,1,305,170.14170363797692) translate(222.2 101.5)"/><path d="M300 119h380v53.2H300z" fill="none"/><use xlink:href="#n" transform="matrix(1,0,0,1,305,124) translate(0 14.799999999999999)"/><use xlink:href="#o" transform="matrix(1,0,0,1,305,124) translate(0 36.4)"/><path d="M300 414.4h380v247.13H300z" stroke="#000" stroke-width="2" fill="none"/><use xlink:href="#p" transform="matrix(1,0,0,1,305,419.4030468749999) translate(0 36.20000000000001)"/><use xlink:href="#q" transform="matrix(1,0,0,1,305,419.4030468749999) translate(102.55 36.20000000000001)"/><use xlink:href="#r" transform="matrix(1,0,0,1,305,419.4030468749999) translate(0 57.80000000000001)"/><use xlink:href="#s" transform="matrix(1,0,0,1,305,419.4030468749999) translate(20 57.80000000000001)"/><use xlink:href="#t" transform="matrix(1,0,0,1,305,419.4030468749999) translate(160.55 57.80000000000001)"/><use xlink:href="#r" transform="matrix(1,0,0,1,305,419.4030468749999) translate(0 79.40000000000002)"/><use xlink:href="#u" transform="matrix(1,0,0,1,305,419.4030468749999) translate(20 79.40000000000002)"/><use xlink:href="#v" transform="matrix(1,0,0,1,305,419.4030468749999) translate(56.650000000000006 79.40000000000002)"/><use xlink:href="#r" transform="matrix(1,0,0,1,305,419.4030468749999) translate(0 101.00000000000003)"/><use xlink:href="#w" transform="matrix(1,0,0,1,305,419.4030468749999) translate(20 101.00000000000003)"/><use xlink:href="#x" transform="matrix(1,0,0,1,305,419.4030468749999) translate(105.65 101.00000000000003)"/><use xlink:href="#y" transform="matrix(1,0,0,1,305,419.4030468749999) translate(191.95 101.00000000000003)"/><use xlink:href="#z" transform="matrix(1,0,0,1,305,419.4030468749999) translate(0 122.60000000000002)"/><use xlink:href="#A" transform="matrix(1,0,0,1,305,419.4030468749999) translate(0 144.20000000000002)"/><use xlink:href="#q" transform="matrix(1,0,0,1,305,419.4030468749999) translate(97.60000000000001 144.20000000000002)"/><use xlink:href="#r" transform="matrix(1,0,0,1,305,419.4030468749999) translate(0 165.8)"/><use xlink:href="#B" transform="matrix(1,0,0,1,305,419.4030468749999) translate(20 165.8)"/><use xlink:href="#C" transform="matrix(1,0,0,1,305,419.4030468749999) translate(76.7 165.8)"/><use xlink:href="#r" transform="matrix(1,0,0,1,305,419.4030468749999) translate(0 187.4)"/><use xlink:href="#D" transform="matrix(1,0,0,1,305,419.4030468749999) translate(20 187.4)"/><use xlink:href="#E" transform="matrix(1,0,0,1,305,419.4030468749999) translate(135.6 187.4)"/><use xlink:href="#F" transform="matrix(1,0,0,1,305,419.4030468749999) translate(221.55 187.4)"/><use xlink:href="#G" transform="matrix(1,0,0,1,305,419.4030468749999) translate(0 209)"/><use xlink:href="#H" transform="matrix(1,0,0,1,305,419.4030468749999) translate(10 209)"/><path d="M300 344.57h380v85.78H300z" fill="none"/><g><use xlink:href="#I" transform="matrix(1,0,0,1,305,349.57499999999993) translate(0 30.799999999999997)"/><use xlink:href="#J" transform="matrix(1,0,0,1,305,349.57499999999993) translate(0 52.4)"/></g><path d="M300 770.5h380V860H300z" stroke="#000" stroke-width="2" fill="none"/><g><use xlink:href="#K" transform="matrix(1,0,0,1,305,775.5) translate(0 32.8)"/><use xlink:href="#L" transform="matrix(1,0,0,1,305,775.5) translate(67.65 32.8)"/><use xlink:href="#M" transform="matrix(1,0,0,1,305,775.5) translate(0 54.4)"/><use xlink:href="#N" transform="matrix(1,0,0,1,305,775.5) translate(102.55 54.4)"/></g><path d="M300 700h380v86.6H300z" fill="none"/><g><use xlink:href="#O" transform="matrix(1,0,0,1,305,705) translate(0 31.299999999999997)"/><use xlink:href="#P" transform="matrix(1,0,0,1,305,705) translate(0 52.9)"/><use xlink:href="#Q" transform="matrix(1,0,0,1,305,705) translate(5 52.9)"/></g><path d="M880 613.84h380v236H880z" stroke="#000" stroke-width="2" fill="none"/><g><use xlink:href="#R" transform="matrix(1,0,0,1,885,618.8385826771653) translate(0 19.400000000000013)"/><use xlink:href="#S" transform="matrix(1,0,0,1,885,618.8385826771653) translate(67.65 19.400000000000013)"/><use xlink:href="#p" transform="matrix(1,0,0,1,885,618.8385826771653) translate(0 41.000000000000014)"/><use xlink:href="#T" transform="matrix(1,0,0,1,885,618.8385826771653) translate(102.55 41.000000000000014)"/><use xlink:href="#U" transform="matrix(1,0,0,1,885,618.8385826771653) translate(0 62.600000000000016)"/><use xlink:href="#q" transform="matrix(1,0,0,1,885,618.8385826771653) translate(15 62.600000000000016)"/><use xlink:href="#V" transform="matrix(1,0,0,1,885,618.8385826771653) translate(0 84.20000000000003)"/><use xlink:href="#B" transform="matrix(1,0,0,1,885,618.8385826771653) translate(30 84.20000000000003)"/><use xlink:href="#W" transform="matrix(1,0,0,1,885,618.8385826771653) translate(86.7 84.20000000000003)"/><use xlink:href="#V" transform="matrix(1,0,0,1,885,618.8385826771653) translate(0 105.80000000000003)"/><use xlink:href="#X" transform="matrix(1,0,0,1,885,618.8385826771653) translate(30 105.80000000000003)"/><use xlink:href="#S" transform="matrix(1,0,0,1,885,618.8385826771653) translate(97.65 105.80000000000003)"/><use xlink:href="#V" transform="matrix(1,0,0,1,885,618.8385826771653) translate(0 127.40000000000002)"/><use xlink:href="#Y" transform="matrix(1,0,0,1,885,618.8385826771653) translate(30 127.40000000000002)"/><use xlink:href="#q" transform="matrix(1,0,0,1,885,618.8385826771653) translate(81.65 127.40000000000002)"/><use xlink:href="#Z" transform="matrix(1,0,0,1,885,618.8385826771653) translate(0 149.00000000000003)"/><use xlink:href="#aa" transform="matrix(1,0,0,1,885,618.8385826771653) translate(40 149.00000000000003)"/><use xlink:href="#ab" transform="matrix(1,0,0,1,885,618.8385826771653) translate(91.65 149.00000000000003)"/><use xlink:href="#ac" transform="matrix(1,0,0,1,885,618.8385826771653) translate(167.95000000000002 149.00000000000003)"/><use xlink:href="#V" transform="matrix(1,0,0,1,885,618.8385826771653) translate(0 170.6)"/><use xlink:href="#ad" transform="matrix(1,0,0,1,885,618.8385826771653) translate(30 170.6)"/><use xlink:href="#r" transform="matrix(1,0,0,1,885,618.8385826771653) translate(0 192.20000000000002)"/><use xlink:href="#ad" transform="matrix(1,0,0,1,885,618.8385826771653) translate(20 192.20000000000002)"/><use xlink:href="#G" transform="matrix(1,0,0,1,885,618.8385826771653) translate(0 213.79999999999998)"/><use xlink:href="#ae" transform="matrix(1,0,0,1,885,618.8385826771653) translate(10 213.79999999999998)"/></g><path d="M880 560h380v53.84H880z" fill="none"/><g><use xlink:href="#af" transform="matrix(1,0,0,1,885,565) translate(0 14.799999999999999)"/><use xlink:href="#ag" transform="matrix(1,0,0,1,885,565) translate(69.85000000000001 14.799999999999999)"/><use xlink:href="#ah" transform="matrix(1,0,0,1,885,565) translate(91.75000000000001 14.799999999999999)"/><use xlink:href="#ai" transform="matrix(1,0,0,1,885,565) translate(0 36.4)"/></g><path d="M880 341.1h380v155.6H880z" stroke="#000" stroke-width="2" fill="none"/><g><use xlink:href="#aj" transform="matrix(1,0,0,1,885,346.09999999999997) translate(0 14.066666666666643)"/><use xlink:href="#ak" transform="matrix(1,0,0,1,885,346.09999999999997) translate(166.15925925925924 14.066666666666643)"/><use xlink:href="#al" transform="matrix(1,0,0,1,885,346.09999999999997) translate(0 34.866666666666646)"/><use xlink:href="#am" transform="matrix(1,0,0,1,885,346.09999999999997) translate(83.44074074074075 34.866666666666646)"/><use xlink:href="#an" transform="matrix(1,0,0,1,885,346.09999999999997) translate(0 55.66666666666665)"/><use xlink:href="#ao" transform="matrix(1,0,0,1,885,346.09999999999997) translate(73.81111111111112 55.66666666666665)"/><use xlink:href="#ap" transform="matrix(1,0,0,1,885,346.09999999999997) translate(0 76.46666666666665)"/><use xlink:href="#aq" transform="matrix(1,0,0,1,885,346.09999999999997) translate(88.20740740740742 76.46666666666665)"/><use xlink:href="#ar" transform="matrix(1,0,0,1,885,346.09999999999997) translate(0 97.26666666666667)"/><use xlink:href="#as" transform="matrix(1,0,0,1,885,346.09999999999997) translate(72.8 97.26666666666667)"/><use xlink:href="#at" transform="matrix(1,0,0,1,885,346.09999999999997) translate(0 118.06666666666668)"/><use xlink:href="#au" transform="matrix(1,0,0,1,885,346.09999999999997) translate(9.629629629629632 118.06666666666668)"/><use xlink:href="#av" transform="matrix(1,0,0,1,885,346.09999999999997) translate(124.75185185185187 118.06666666666668)"/><use xlink:href="#aw" transform="matrix(1,0,0,1,885,346.09999999999997) translate(0 138.86666666666667)"/></g><path d="M880 277.3h380v53.2H880z" fill="none"/><g><use xlink:href="#ax" transform="matrix(1,0,0,1,885,282.29999999999995) translate(0 14.799999999999999)"/><use xlink:href="#ay" transform="matrix(1,0,0,1,885,282.29999999999995) translate(0 36.4)"/></g><path d="M680 235.62h40v302.34h-40" stroke="#000" stroke-width="2" fill="none"/><path d="M694.27 542.6L680 537.96l14.27-4.63z"/><path d="M695.27 543.98L680 539.02v-2.1l15.27-4.97zm-12.03-6.02l10.03 3.26v-6.5z"/><path fill="#fff" d="M679.55 376h80.9v21.6h-80.9z"/><g><use xlink:href="#az" transform="matrix(1,0,0,1,679.55,375.9924376282442) translate(0 14.4)"/><use xlink:href="#aA" transform="matrix(1,0,0,1,679.55,375.9924376282442) translate(36.95 14.4)"/></g><path d="M681 585.45h40V813.6h-40" stroke="#000" stroke-width="2" fill="none"/><path d="M681 586.45h-1v-2h1zM695.27 818.25L681 813.6l14.27-4.62z"/><path d="M696.27 819.62L680 814.34v-1.45l16.27-5.3zm-12.03-6l10.03 3.25v-6.52z"/><path fill="#fff" d="M680.55 688.73h80.9v21.6h-80.9z"/><g><use xlink:href="#az" transform="matrix(1,0,0,1,680.55,688.7290040874667) translate(0 14.4)"/><use xlink:href="#aA" transform="matrix(1,0,0,1,680.55,688.7290040874667) translate(36.95 14.4)"/></g><path d="M681 849.07h99V377.64h99" stroke="#000" stroke-width="2" fill="none"/><path d="M681 850.07h-1v-2h1zM879 377.64l-14.27 4.63V373z"/><path d="M880 376.9v1.46l-16.27 5.3v-12.03zm-14.27 4l10.03-3.26-10.03-3.26z"/><path fill="#fff" d="M738.02 520.66h83.96v21.6h-83.96z"/><g><use xlink:href="#aB" transform="matrix(1,0,0,1,738.025,520.6557845311975) translate(0 14.4)"/></g><path d="M880 731.84h-41V457.66h40" stroke="#000" stroke-width="2" fill="none"/><path d="M879 457.66l-14.27 4.64v-9.27z"/><path d="M880 456.94v1.45l-16.27 5.28v-12.03zm-14.27 3.98l10.03-3.26-10.03-3.26z"/><path fill="#fff" d="M808.55 584.45h60.9v21.6h-60.9z"/><g><use xlink:href="#aC" transform="matrix(1,0,0,1,808.55,584.4510133269623) translate(0 14.4)"/></g><defs><path d="M109-170H84l-4-78h32zm-65 0H19l-4-78h33" id="aD"/><path d="M117-194c89-4 53 116 60 194h-32v-121c0-31-8-49-39-48C34-167 62-67 57 0H25l-1-190h30c1 10-1 24 2 32 11-22 29-35 61-36" id="aE"/><path d="M141-36C126-15 110 5 73 4 37 3 15-17 15-53c-1-64 63-63 125-63 3-35-9-54-41-54-24 1-41 7-42 31l-33-3c5-37 33-52 76-52 45 0 72 20 72 64v82c-1 20 7 32 28 27v20c-31 9-61-2-59-35zM48-53c0 20 12 33 32 33 41-3 63-29 60-74-43 2-92-5-92 41" id="aF"/><path d="M210-169c-67 3-38 105-44 169h-31v-121c0-29-5-50-35-48C34-165 62-65 56 0H25l-1-190h30c1 10-1 24 2 32 10-44 99-50 107 0 11-21 27-35 58-36 85-2 47 119 55 194h-31v-121c0-29-5-49-35-48" id="aG"/><path d="M100-194c63 0 86 42 84 106H49c0 40 14 67 53 68 26 1 43-12 49-29l28 8c-11 28-37 45-77 45C44 4 14-33 15-96c1-61 26-98 85-98zm52 81c6-60-76-77-97-28-3 7-6 17-6 28h103" id="aH"/><path d="M33-154v-36h34v36H33zM33 0v-36h34V0H33" id="aI"/><g id="b"><use transform="matrix(0.05,0,0,0.05,0,0)" xlink:href="#aD"/><use transform="matrix(0.05,0,0,0.05,6.3500000000000005,0)" xlink:href="#aE"/><use transform="matrix(0.05,0,0,0.05,16.35,0)" xlink:href="#aF"/><use transform="matrix(0.05,0,0,0.05,26.35,0)" xlink:href="#aG"/><use transform="matrix(0.05,0,0,0.05,41.300000000000004,0)" xlink:href="#aH"/><use transform="matrix(0.05,0,0,0.05,51.300000000000004,0)" xlink:href="#aD"/><use transform="matrix(0.05,0,0,0.05,57.650000000000006,0)" xlink:href="#aI"/></g><path d="M114-163C36-179 61-72 57 0H25l-1-190h30c1 12-1 29 2 39 6-27 23-49 58-41v29" id="aJ"/><path d="M179-190L93 31C79 59 56 82 12 73V49c39 6 53-20 64-50L1-190h34L92-34l54-156h33" id="aK"/><path d="M-5 72V49h209v23H-5" id="aL"/><path d="M100-194c62-1 85 37 85 99 1 63-27 99-86 99S16-35 15-95c0-66 28-99 85-99zM99-20c44 1 53-31 53-75 0-43-8-75-51-75s-53 32-53 75 10 74 51 75" id="aM"/><path d="M101-234c-31-9-42 10-38 44h38v23H63V0H32v-167H5v-23h27c-7-52 17-82 69-68v24" id="aN"/><path d="M59-47c-2 24 18 29 38 22v24C64 9 27 4 27-40v-127H5v-23h24l9-43h21v43h35v23H59v120" id="aO"/><path d="M106-169C34-169 62-67 57 0H25v-261h32l-1 103c12-21 28-36 61-36 89 0 53 116 60 194h-32v-121c2-32-8-49-39-48" id="aP"/><path d="M24-231v-30h32v30H24zM24 0v-190h32V0H24" id="aQ"/><path d="M177-190C167-65 218 103 67 71c-23-6-38-20-44-43l32-5c15 47 100 32 89-28v-30C133-14 115 1 83 1 29 1 15-40 15-95c0-56 16-97 71-98 29-1 48 16 59 35 1-10 0-23 2-32h30zM94-22c36 0 50-32 50-73 0-42-14-75-50-75-39 0-46 34-46 75s6 73 46 73" id="aR"/><path d="M135-143c-3-34-86-38-87 0 15 53 115 12 119 90S17 21 10-45l28-5c4 36 97 45 98 0-10-56-113-15-118-90-4-57 82-63 122-42 12 7 21 19 24 35" id="aS"/><path d="M68-38c1 34 0 65-14 84H32c9-13 17-26 17-46H33v-38h35" id="aT"/><g id="c"><use transform="matrix(0.05,0,0,0.05,0,0)" xlink:href="#aD"/><use transform="matrix(0.05,0,0,0.05,6.3500000000000005,0)" xlink:href="#aF"/><use transform="matrix(0.05,0,0,0.05,16.35,0)" xlink:href="#aJ"/><use transform="matrix(0.05,0,0,0.05,22.3,0)" xlink:href="#aJ"/><use transform="matrix(0.05,0,0,0.05,28.25,0)" xlink:href="#aF"/><use transform="matrix(0.05,0,0,0.05,38.25,0)" xlink:href="#aK"/><use transform="matrix(0.05,0,0,0.05,47.25,0)" xlink:href="#aL"/><use transform="matrix(0.05,0,0,0.05,57.25,0)" xlink:href="#aM"/><use transform="matrix(0.05,0,0,0.05,67.25,0)" xlink:href="#aN"/><use transform="matrix(0.05,0,0,0.05,72.25,0)" xlink:href="#aL"/><use transform="matrix(0.05,0,0,0.05,82.25,0)" xlink:href="#aO"/><use transform="matrix(0.05,0,0,0.05,87.25,0)" xlink:href="#aP"/><use transform="matrix(0.05,0,0,0.05,97.25,0)" xlink:href="#aQ"/><use transform="matrix(0.05,0,0,0.05,101.2,0)" xlink:href="#aE"/><use transform="matrix(0.05,0,0,0.05,111.2,0)" xlink:href="#aR"/><use transform="matrix(0.05,0,0,0.05,121.2,0)" xlink:href="#aS"/><use transform="matrix(0.05,0,0,0.05,130.2,0)" xlink:href="#aD"/><use transform="matrix(0.05,0,0,0.05,136.54999999999998,0)" xlink:href="#aT"/></g><g id="d"><use transform="matrix(0.05,0,0,0.05,0,0)" xlink:href="#aD"/><use transform="matrix(0.05,0,0,0.05,6.3500000000000005,0)" xlink:href="#aS"/><use transform="matrix(0.05,0,0,0.05,15.350000000000001,0)" xlink:href="#aH"/><use transform="matrix(0.05,0,0,0.05,25.35,0)" xlink:href="#aE"/><use transform="matrix(0.05,0,0,0.05,35.35,0)" xlink:href="#aS"/><use transform="matrix(0.05,0,0,0.05,44.35,0)" xlink:href="#aM"/><use transform="matrix(0.05,0,0,0.05,54.35,0)" xlink:href="#aJ"/><use transform="matrix(0.05,0,0,0.05,60.300000000000004,0)" xlink:href="#aS"/><use transform="matrix(0.05,0,0,0.05,69.30000000000001,0)" xlink:href="#aD"/><use transform="matrix(0.05,0,0,0.05,75.65,0)" xlink:href="#aI"/></g><path d="M26 75v-336h71v23H56V52h41v23H26" id="aU"/><path d="M115-194c55 1 70 41 70 98S169 2 115 4C84 4 66-9 55-30l1 105H24l-1-265h31l2 30c10-21 28-34 59-34zm-8 174c40 0 45-34 45-75s-6-73-45-74c-42 0-51 32-51 76 0 43 10 73 51 73" id="aV"/><path d="M27 0v-27h64v-190l-56 39v-29l58-41h29v221h61V0H27" id="aW"/><path d="M101-251c82-7 93 87 43 132L82-64C71-53 59-42 53-27h129V0H18c2-99 128-94 128-182 0-28-16-43-45-43s-46 15-49 41l-32-3c6-41 34-60 81-64" id="aX"/><g id="e"><use transform="matrix(0.05,0,0,0.05,0,0)" xlink:href="#aU"/><use transform="matrix(0.05,0,0,0.05,5,0)" xlink:href="#aD"/><use transform="matrix(0.05,0,0,0.05,11.350000000000001,0)" xlink:href="#aO"/><use transform="matrix(0.05,0,0,0.05,16.35,0)" xlink:href="#aG"/><use transform="matrix(0.05,0,0,0.05,31.3,0)" xlink:href="#aV"/><use transform="matrix(0.05,0,0,0.05,41.300000000000004,0)" xlink:href="#aW"/><use transform="matrix(0.05,0,0,0.05,49.95,0)" xlink:href="#aW"/><use transform="matrix(0.05,0,0,0.05,59.95,0)" xlink:href="#aX"/><use transform="matrix(0.05,0,0,0.05,69.95,0)" xlink:href="#aD"/><use transform="matrix(0.05,0,0,0.05,76.3,0)" xlink:href="#aT"/></g><path d="M115-194c53 0 69 39 70 98 0 66-23 100-70 100C84 3 66-7 56-30L54 0H23l1-261h32v101c10-23 28-34 59-34zm-8 174c40 0 45-34 45-75 0-40-5-75-45-74-42 0-51 32-51 76 0 43 10 73 51 73" id="aY"/><path d="M134-131c28 9 52 24 51 62-1 50-34 73-85 73S17-19 16-69c0-36 21-54 49-61-75-25-45-126 34-121 46 3 78 18 79 63 0 33-17 51-44 57zm-34-11c31 1 46-15 46-44 0-28-17-43-47-42-29 0-46 13-45 42 1 28 16 44 46 44zm1 122c35 0 51-18 51-52 0-30-18-46-53-46-33 0-51 17-51 47 0 34 19 51 53 51" id="aZ"/><path d="M101-251c68 0 85 55 85 127S166 4 100 4C33 4 14-52 14-124c0-73 17-127 87-127zm-1 229c47 0 54-49 54-102s-4-102-53-102c-51 0-55 48-55 102 0 53 5 102 54 102" id="ba"/><g id="f"><use transform="matrix(0.05,0,0,0.05,0,0)" xlink:href="#aD"/><use transform="matrix(0.05,0,0,0.05,6.3500000000000005,0)" xlink:href="#aY"/><use transform="matrix(0.05,0,0,0.05,16.35,0)" xlink:href="#aG"/><use transform="matrix(0.05,0,0,0.05,31.3,0)" xlink:href="#aV"/><use transform="matrix(0.05,0,0,0.05,41.300000000000004,0)" xlink:href="#aW"/><use transform="matrix(0.05,0,0,0.05,51.300000000000004,0)" xlink:href="#aZ"/><use transform="matrix(0.05,0,0,0.05,61.300000000000004,0)" xlink:href="#ba"/><use transform="matrix(0.05,0,0,0.05,71.30000000000001,0)" xlink:href="#aD"/><use transform="matrix(0.05,0,0,0.05,77.65,0)" xlink:href="#aT"/></g><path d="M145-31C134-9 116 4 85 4 32 4 16-35 15-94c0-59 17-99 70-100 32-1 48 14 60 33 0-11-1-24 2-32h30l-1 268h-32zM93-21c41 0 51-33 51-76s-8-73-50-73c-40 0-46 35-46 75s5 74 45 74" id="bb"/><path d="M3 75V52h41v-290H3v-23h71V75H3" id="bc"/><g id="g"><use transform="matrix(0.05,0,0,0.05,0,0)" xlink:href="#aD"/><use transform="matrix(0.05,0,0,0.05,6.3500000000000005,0)" xlink:href="#bb"/><use transform="matrix(0.05,0,0,0.05,16.35,0)" xlink:href="#aJ"/><use transform="matrix(0.05,0,0,0.05,22.3,0)" xlink:href="#aW"/><use transform="matrix(0.05,0,0,0.05,32.3,0)" xlink:href="#ba"/><use transform="matrix(0.05,0,0,0.05,42.3,0)" xlink:href="#aD"/><use transform="matrix(0.05,0,0,0.05,48.65,0)" xlink:href="#bc"/><use transform="matrix(0.05,0,0,0.05,53.650000000000006,0)" xlink:href="#aT"/></g><path d="M85-194c31 0 48 13 60 33l-1-100h32l1 261h-30c-2-10 0-23-3-31C134-8 116 4 85 4 32 4 16-35 15-94c0-66 23-100 70-100zm9 24c-40 0-46 34-46 75 0 40 6 74 45 74 42 0 51-32 51-76 0-42-9-74-50-73" id="bd"/><g id="h"><use transform="matrix(0.05,0,0,0.05,0,0)" xlink:href="#aD"/><use transform="matrix(0.05,0,0,0.05,6.3500000000000005,0)" xlink:href="#aE"/><use transform="matrix(0.05,0,0,0.05,16.35,0)" xlink:href="#aM"/><use transform="matrix(0.05,0,0,0.05,26.35,0)" xlink:href="#bd"/><use transform="matrix(0.05,0,0,0.05,36.35,0)" xlink:href="#aH"/><use transform="matrix(0.05,0,0,0.05,46.35,0)" xlink:href="#aS"/><use transform="matrix(0.05,0,0,0.05,55.35,0)" xlink:href="#aD"/><use transform="matrix(0.05,0,0,0.05,61.7,0)" xlink:href="#aI"/></g><g id="i"><use transform="matrix(0.05,0,0,0.05,0,0)" xlink:href="#aU"/><use transform="matrix(0.05,0,0,0.05,5,0)" xlink:href="#aD"/><use transform="matrix(0.05,0,0,0.05,11.350000000000001,0)" xlink:href="#ba"/><use transform="matrix(0.05,0,0,0.05,21.35,0)" xlink:href="#ba"/><use transform="matrix(0.05,0,0,0.05,31.35,0)" xlink:href="#aW"/><use transform="matrix(0.05,0,0,0.05,41.35,0)" xlink:href="#aD"/><use transform="matrix(0.05,0,0,0.05,47.7,0)" xlink:href="#aT"/></g><g id="j"><use transform="matrix(0.05,0,0,0.05,0,0)" xlink:href="#aD"/><use transform="matrix(0.05,0,0,0.05,6.3500000000000005,0)" xlink:href="#ba"/><use transform="matrix(0.05,0,0,0.05,16.35,0)" xlink:href="#ba"/><use transform="matrix(0.05,0,0,0.05,26.35,0)" xlink:href="#aX"/><use transform="matrix(0.05,0,0,0.05,36.35,0)" xlink:href="#aD"/><use transform="matrix(0.05,0,0,0.05,42.7,0)" xlink:href="#bc"/><use transform="matrix(0.05,0,0,0.05,47.7,0)" xlink:href="#aT"/></g><path d="M84 4C-5 8 30-112 23-190h32v120c0 31 7 50 39 49 72-2 45-101 50-169h31l1 190h-30c-1-10 1-25-2-33-11 22-28 36-60 37" id="be"/><g id="k"><use transform="matrix(0.05,0,0,0.05,0,0)" xlink:href="#aD"/><use transform="matrix(0.05,0,0,0.05,6.3500000000000005,0)" xlink:href="#aN"/><use transform="matrix(0.05,0,0,0.05,11.350000000000001,0)" xlink:href="#aH"/><use transform="matrix(0.05,0,0,0.05,21.35,0)" xlink:href="#aF"/><use transform="matrix(0.05,0,0,0.05,31.35,0)" xlink:href="#aO"/><use transform="matrix(0.05,0,0,0.05,36.35,0)" xlink:href="#be"/><use transform="matrix(0.05,0,0,0.05,46.35,0)" xlink:href="#aJ"/><use transform="matrix(0.05,0,0,0.05,52.300000000000004,0)" xlink:href="#aH"/><use transform="matrix(0.05,0,0,0.05,62.300000000000004,0)" xlink:href="#aS"/><use transform="matrix(0.05,0,0,0.05,71.30000000000001,0)" xlink:href="#aD"/><use transform="matrix(0.05,0,0,0.05,77.65,0)" xlink:href="#aI"/></g><g id="l"><use transform="matrix(0.05,0,0,0.05,0,0)" xlink:href="#aU"/><use transform="matrix(0.05,0,0,0.05,5,0)" xlink:href="#aD"/><use transform="matrix(0.05,0,0,0.05,11.350000000000001,0)" xlink:href="#aO"/><use transform="matrix(0.05,0,0,0.05,16.35,0)" xlink:href="#aH"/><use transform="matrix(0.05,0,0,0.05,26.35,0)" xlink:href="#aG"/><use transform="matrix(0.05,0,0,0.05,41.300000000000004,0)" xlink:href="#aV"/><use transform="matrix(0.05,0,0,0.05,51.300000000000004,0)" xlink:href="#aH"/><use transform="matrix(0.05,0,0,0.05,61.300000000000004,0)" xlink:href="#aJ"/><use transform="matrix(0.05,0,0,0.05,67.25,0)" xlink:href="#aF"/><use transform="matrix(0.05,0,0,0.05,77.25,0)" xlink:href="#aO"/><use transform="matrix(0.05,0,0,0.05,82.25,0)" xlink:href="#be"/><use transform="matrix(0.05,0,0,0.05,92.25,0)" xlink:href="#aJ"/><use transform="matrix(0.05,0,0,0.05,98.2,0)" xlink:href="#aH"/><use transform="matrix(0.05,0,0,0.05,108.2,0)" xlink:href="#aD"/><use transform="matrix(0.05,0,0,0.05,114.55000000000001,0)" xlink:href="#aT"/></g><g id="m"><use transform="matrix(0.05,0,0,0.05,0,0)" xlink:href="#aD"/><use transform="matrix(0.05,0,0,0.05,6.3500000000000005,0)" xlink:href="#aP"/><use transform="matrix(0.05,0,0,0.05,16.35,0)" xlink:href="#be"/><use transform="matrix(0.05,0,0,0.05,26.35,0)" xlink:href="#aG"/><use transform="matrix(0.05,0,0,0.05,41.300000000000004,0)" xlink:href="#aQ"/><use transform="matrix(0.05,0,0,0.05,45.25000000000001,0)" xlink:href="#bd"/><use transform="matrix(0.05,0,0,0.05,55.25,0)" xlink:href="#aQ"/><use transform="matrix(0.05,0,0,0.05,59.20000000000002,0)" xlink:href="#aO"/><use transform="matrix(0.05,0,0,0.05,64.20000000000002,0)" xlink:href="#aK"/><use transform="matrix(0.05,0,0,0.05,73.20000000000002,0)" xlink:href="#aD"/><use transform="matrix(0.05,0,0,0.05,79.55000000000001,0)" xlink:href="#bc"/></g><path d="M175 0L67-191c6 58 2 128 3 191H24v-248h59L193-55c-6-58-2-129-3-193h46V0h-61" id="bf"/><path d="M185-48c-13 30-37 53-82 52C43 2 14-33 14-96s30-98 90-98c62 0 83 45 84 108H66c0 31 8 55 39 56 18 0 30-7 34-22zm-45-69c5-46-57-63-70-21-2 6-4 13-4 21h74" id="bg"/><path d="M115-3C79 11 28 4 28-45v-112H4v-33h27l15-45h31v45h36v33H77v99c-1 23 16 31 38 25v30" id="bh"/><path d="M231 0h-52l-39-155L100 0H48L-1-190h46L77-45c9-52 24-97 36-145h53l37 145 32-145h46" id="bi"/><path d="M110-194c64 0 96 36 96 99 0 64-35 99-97 99-61 0-95-36-95-99 0-62 34-99 96-99zm-1 164c35 0 45-28 45-65 0-40-10-65-43-65-34 0-45 26-45 65 0 36 10 65 43 65" id="bj"/><path d="M135-150c-39-12-60 13-60 57V0H25l-1-190h47c2 13-1 29 3 40 6-28 27-53 61-41v41" id="bk"/><path d="M147 0L96-86 75-71V0H25v-261h50v150l67-79h53l-66 74L201 0h-54" id="bl"/><g id="n"><use transform="matrix(0.05,0,0,0.05,0,0)" xlink:href="#bf"/><use transform="matrix(0.05,0,0,0.05,12.950000000000001,0)" xlink:href="#bg"/><use transform="matrix(0.05,0,0,0.05,22.950000000000003,0)" xlink:href="#bh"/><use transform="matrix(0.05,0,0,0.05,28.900000000000002,0)" xlink:href="#bi"/><use transform="matrix(0.05,0,0,0.05,42.900000000000006,0)" xlink:href="#bj"/><use transform="matrix(0.05,0,0,0.05,53.85,0)" xlink:href="#bk"/><use transform="matrix(0.05,0,0,0.05,60.85,0)" xlink:href="#bl"/></g><path d="M0 4l72-265h28L28 4H0" id="bm"/><path d="M16-82v-28h88v28H16" id="bn"/><path d="M206 0h-36l-40-164L89 0H53L-1-190h32L70-26l43-164h34l41 164 42-164h31" id="bo"/><path d="M143 0L79-87 56-68V0H24v-261h32v163l83-92h37l-77 82L181 0h-38" id="bp"/><g id="o"><use transform="matrix(0.05,0,0,0.05,0,0)" xlink:href="#bm"/><use transform="matrix(0.05,0,0,0.05,5,0)" xlink:href="#aS"/><use transform="matrix(0.05,0,0,0.05,14,0)" xlink:href="#aH"/><use transform="matrix(0.05,0,0,0.05,24,0)" xlink:href="#aE"/><use transform="matrix(0.05,0,0,0.05,34,0)" xlink:href="#aS"/><use transform="matrix(0.05,0,0,0.05,43,0)" xlink:href="#aM"/><use transform="matrix(0.05,0,0,0.05,53,0)" xlink:href="#aJ"/><use transform="matrix(0.05,0,0,0.05,58.95,0)" xlink:href="#bn"/><use transform="matrix(0.05,0,0,0.05,64.9,0)" xlink:href="#aE"/><use transform="matrix(0.05,0,0,0.05,74.9,0)" xlink:href="#aH"/><use transform="matrix(0.05,0,0,0.05,84.9,0)" xlink:href="#aO"/><use transform="matrix(0.05,0,0,0.05,89.9,0)" xlink:href="#bo"/><use transform="matrix(0.05,0,0,0.05,102.85000000000001,0)" xlink:href="#aM"/><use transform="matrix(0.05,0,0,0.05,112.85000000000001,0)" xlink:href="#aJ"/><use transform="matrix(0.05,0,0,0.05,118.80000000000001,0)" xlink:href="#bp"/><use transform="matrix(0.05,0,0,0.05,127.80000000000001,0)" xlink:href="#aS"/></g><g id="p"><use transform="matrix(0.05,0,0,0.05,0,0)" xlink:href="#aD"/><use transform="matrix(0.05,0,0,0.05,6.3500000000000005,0)" xlink:href="#aV"/><use transform="matrix(0.05,0,0,0.05,16.35,0)" xlink:href="#aJ"/><use transform="matrix(0.05,0,0,0.05,22.3,0)" xlink:href="#aM"/><use transform="matrix(0.05,0,0,0.05,32.3,0)" xlink:href="#aV"/><use transform="matrix(0.05,0,0,0.05,42.3,0)" xlink:href="#aH"/><use transform="matrix(0.05,0,0,0.05,52.29999999999999,0)" xlink:href="#aJ"/><use transform="matrix(0.05,0,0,0.05,58.25,0)" xlink:href="#aO"/><use transform="matrix(0.05,0,0,0.05,63.25,0)" xlink:href="#aQ"/><use transform="matrix(0.05,0,0,0.05,67.2,0)" xlink:href="#aH"/><use transform="matrix(0.05,0,0,0.05,77.2,0)" xlink:href="#aS"/><use transform="matrix(0.05,0,0,0.05,86.2,0)" xlink:href="#aD"/><use transform="matrix(0.05,0,0,0.05,92.55,0)" xlink:href="#aI"/></g><path d="M39-94c74 12-11 154 75 146v23c-44 4-70-10-70-52C44-23 55-84 6-82v-22c81 4-7-162 84-157h24v23c-82-15-2 131-75 144" id="bq"/><use transform="matrix(0.05,0,0,0.05,0,0)" xlink:href="#bq" id="q"/><g id="s"><use transform="matrix(0.05,0,0,0.05,0,0)" xlink:href="#aD"/><use transform="matrix(0.05,0,0,0.05,6.3500000000000005,0)" xlink:href="#aE"/><use transform="matrix(0.05,0,0,0.05,16.35,0)" xlink:href="#aH"/><use transform="matrix(0.05,0,0,0.05,26.35,0)" xlink:href="#aO"/><use transform="matrix(0.05,0,0,0.05,31.35,0)" xlink:href="#bo"/><use transform="matrix(0.05,0,0,0.05,44.300000000000004,0)" xlink:href="#aM"/><use transform="matrix(0.05,0,0,0.05,54.300000000000004,0)" xlink:href="#aJ"/><use transform="matrix(0.05,0,0,0.05,60.25,0)" xlink:href="#bp"/><use transform="matrix(0.05,0,0,0.05,69.25,0)" xlink:href="#aL"/><use transform="matrix(0.05,0,0,0.05,79.25,0)" xlink:href="#aE"/><use transform="matrix(0.05,0,0,0.05,89.25,0)" xlink:href="#aF"/><use transform="matrix(0.05,0,0,0.05,99.25,0)" xlink:href="#aG"/><use transform="matrix(0.05,0,0,0.05,114.2,0)" xlink:href="#aH"/><use transform="matrix(0.05,0,0,0.05,124.2,0)" xlink:href="#aD"/><use transform="matrix(0.05,0,0,0.05,130.55,0)" xlink:href="#aI"/></g><g id="t"><use transform="matrix(0.05,0,0,0.05,0,0)" xlink:href="#aD"/><use transform="matrix(0.05,0,0,0.05,6.3500000000000005,0)" xlink:href="#aF"/><use transform="matrix(0.05,0,0,0.05,16.35,0)" xlink:href="#aJ"/><use transform="matrix(0.05,0,0,0.05,22.3,0)" xlink:href="#aJ"/><use transform="matrix(0.05,0,0,0.05,28.25,0)" xlink:href="#aF"/><use transform="matrix(0.05,0,0,0.05,38.25,0)" xlink:href="#aK"/><use transform="matrix(0.05,0,0,0.05,47.25,0)" xlink:href="#aL"/><use transform="matrix(0.05,0,0,0.05,57.25,0)" xlink:href="#aM"/><use transform="matrix(0.05,0,0,0.05,67.25,0)" xlink:href="#aN"/><use transform="matrix(0.05,0,0,0.05,72.25,0)" xlink:href="#aL"/><use transform="matrix(0.05,0,0,0.05,82.25,0)" xlink:href="#aO"/><use transform="matrix(0.05,0,0,0.05,87.25,0)" xlink:href="#aP"/><use transform="matrix(0.05,0,0,0.05,97.25,0)" xlink:href="#aQ"/><use transform="matrix(0.05,0,0,0.05,101.2,0)" xlink:href="#aE"/><use transform="matrix(0.05,0,0,0.05,111.2,0)" xlink:href="#aR"/><use transform="matrix(0.05,0,0,0.05,121.2,0)" xlink:href="#aS"/><use transform="matrix(0.05,0,0,0.05,130.2,0)" xlink:href="#aD"/><use transform="matrix(0.05,0,0,0.05,136.54999999999998,0)" xlink:href="#aT"/></g><g id="u"><use transform="matrix(0.05,0,0,0.05,0,0)" xlink:href="#aD"/><use transform="matrix(0.05,0,0,0.05,6.3500000000000005,0)" xlink:href="#aQ"/><use transform="matrix(0.05,0,0,0.05,10.3,0)" xlink:href="#bd"/><use transform="matrix(0.05,0,0,0.05,20.3,0)" xlink:href="#aD"/><use transform="matrix(0.05,0,0,0.05,26.650000000000002,0)" xlink:href="#aI"/></g><g id="v"><use transform="matrix(0.05,0,0,0.05,0,0)" xlink:href="#aD"/><use transform="matrix(0.05,0,0,0.05,6.3500000000000005,0)" xlink:href="#ba"/><use transform="matrix(0.05,0,0,0.05,16.35,0)" xlink:href="#ba"/><use transform="matrix(0.05,0,0,0.05,26.35,0)" xlink:href="#aW"/><use transform="matrix(0.05,0,0,0.05,36.35,0)" xlink:href="#aD"/></g><g id="w"><use transform="matrix(0.05,0,0,0.05,0,0)" xlink:href="#aD"/><use transform="matrix(0.05,0,0,0.05,6.3500000000000005,0)" xlink:href="#aS"/><use transform="matrix(0.05,0,0,0.05,15.350000000000001,0)" xlink:href="#aH"/><use transform="matrix(0.05,0,0,0.05,25.35,0)" xlink:href="#aE"/><use transform="matrix(0.05,0,0,0.05,35.35,0)" xlink:href="#aS"/><use transform="matrix(0.05,0,0,0.05,44.35,0)" xlink:href="#aM"/><use transform="matrix(0.05,0,0,0.05,54.35,0)" xlink:href="#aJ"/><use transform="matrix(0.05,0,0,0.05,60.300000000000004,0)" xlink:href="#aS"/><use transform="matrix(0.05,0,0,0.05,69.30000000000001,0)" xlink:href="#aD"/><use transform="matrix(0.05,0,0,0.05,75.65,0)" xlink:href="#aI"/></g><g id="x"><use transform="matrix(0.05,0,0,0.05,0,0)" xlink:href="#aU"/><use transform="matrix(0.05,0,0,0.05,5,0)" xlink:href="#aD"/><use transform="matrix(0.05,0,0,0.05,11.350000000000001,0)" xlink:href="#aO"/><use transform="matrix(0.05,0,0,0.05,16.35,0)" xlink:href="#aG"/><use transform="matrix(0.05,0,0,0.05,31.3,0)" xlink:href="#aV"/><use transform="matrix(0.05,0,0,0.05,41.300000000000004,0)" xlink:href="#aW"/><use transform="matrix(0.05,0,0,0.05,49.95,0)" xlink:href="#aW"/><use transform="matrix(0.05,0,0,0.05,59.95,0)" xlink:href="#aX"/><use transform="matrix(0.05,0,0,0.05,69.95,0)" xlink:href="#aD"/><use transform="matrix(0.05,0,0,0.05,76.3,0)" xlink:href="#aT"/></g><g id="y"><use transform="matrix(0.05,0,0,0.05,0,0)" xlink:href="#aD"/><use transform="matrix(0.05,0,0,0.05,6.3500000000000005,0)" xlink:href="#aY"/><use transform="matrix(0.05,0,0,0.05,16.35,0)" xlink:href="#aG"/><use transform="matrix(0.05,0,0,0.05,31.3,0)" xlink:href="#aV"/><use transform="matrix(0.05,0,0,0.05,41.300000000000004,0)" xlink:href="#aW"/><use transform="matrix(0.05,0,0,0.05,51.300000000000004,0)" xlink:href="#aZ"/><use transform="matrix(0.05,0,0,0.05,61.300000000000004,0)" xlink:href="#ba"/><use transform="matrix(0.05,0,0,0.05,71.30000000000001,0)" xlink:href="#aD"/><use transform="matrix(0.05,0,0,0.05,77.65,0)" xlink:href="#bc"/><use transform="matrix(0.05,0,0,0.05,82.65,0)" xlink:href="#aT"/></g><path d="M76-40C78 24 84 88 6 75V52C86 64 9-79 80-94c-40-6-34-59-34-106 1-29-11-41-40-38v-23c44-4 70 10 70 52 0 47-12 108 38 105v22c-26 1-39 14-38 42" id="br"/><g id="z"><use transform="matrix(0.05,0,0,0.05,0,0)" xlink:href="#br"/><use transform="matrix(0.05,0,0,0.05,6,0)" xlink:href="#aT"/></g><g id="A"><use transform="matrix(0.05,0,0,0.05,0,0)" xlink:href="#aD"/><use transform="matrix(0.05,0,0,0.05,6.3500000000000005,0)" xlink:href="#aR"/><use transform="matrix(0.05,0,0,0.05,16.35,0)" xlink:href="#aH"/><use transform="matrix(0.05,0,0,0.05,26.35,0)" xlink:href="#aM"/><use transform="matrix(0.05,0,0,0.05,36.35,0)" xlink:href="#aG"/><use transform="matrix(0.05,0,0,0.05,51.300000000000004,0)" xlink:href="#aH"/><use transform="matrix(0.05,0,0,0.05,61.300000000000004,0)" xlink:href="#aO"/><use transform="matrix(0.05,0,0,0.05,66.30000000000001,0)" xlink:href="#aJ"/><use transform="matrix(0.05,0,0,0.05,72.25000000000001,0)" xlink:href="#aK"/><use transform="matrix(0.05,0,0,0.05,81.25000000000001,0)" xlink:href="#aD"/><use transform="matrix(0.05,0,0,0.05,87.60000000000001,0)" xlink:href="#aI"/></g><g id="B"><use transform="matrix(0.05,0,0,0.05,0,0)" xlink:href="#aD"/><use transform="matrix(0.05,0,0,0.05,6.3500000000000005,0)" xlink:href="#aO"/><use transform="matrix(0.05,0,0,0.05,11.350000000000001,0)" xlink:href="#aK"/><use transform="matrix(0.05,0,0,0.05,20.35,0)" xlink:href="#aV"/><use transform="matrix(0.05,0,0,0.05,30.35,0)" xlink:href="#aH"/><use transform="matrix(0.05,0,0,0.05,40.35,0)" xlink:href="#aD"/><use transform="matrix(0.05,0,0,0.05,46.7,0)" xlink:href="#aI"/></g><path d="M30-248c87 1 191-15 191 75 0 78-77 80-158 76V0H30v-248zm33 125c57 0 124 11 124-50 0-59-68-47-124-48v98" id="bs"/><g id="C"><use transform="matrix(0.05,0,0,0.05,0,0)" xlink:href="#aD"/><use transform="matrix(0.05,0,0,0.05,6.3500000000000005,0)" xlink:href="#bs"/><use transform="matrix(0.05,0,0,0.05,18.35,0)" xlink:href="#aM"/><use transform="matrix(0.05,0,0,0.05,28.35,0)" xlink:href="#aQ"/><use transform="matrix(0.05,0,0,0.05,32.300000000000004,0)" xlink:href="#aE"/><use transform="matrix(0.05,0,0,0.05,42.300000000000004,0)" xlink:href="#aO"/><use transform="matrix(0.05,0,0,0.05,47.300000000000004,0)" xlink:href="#aD"/><use transform="matrix(0.05,0,0,0.05,53.650000000000006,0)" xlink:href="#aT"/></g><path d="M96-169c-40 0-48 33-48 73s9 75 48 75c24 0 41-14 43-38l32 2c-6 37-31 61-74 61-59 0-76-41-82-99-10-93 101-131 147-64 4 7 5 14 7 22l-32 3c-4-21-16-35-41-35" id="bt"/><g id="D"><use transform="matrix(0.05,0,0,0.05,0,0)" xlink:href="#aD"/><use transform="matrix(0.05,0,0,0.05,6.3500000000000005,0)" xlink:href="#bt"/><use transform="matrix(0.05,0,0,0.05,15.350000000000001,0)" xlink:href="#aM"/><use transform="matrix(0.05,0,0,0.05,25.35,0)" xlink:href="#aM"/><use transform="matrix(0.05,0,0,0.05,35.35,0)" xlink:href="#aJ"/><use transform="matrix(0.05,0,0,0.05,41.300000000000004,0)" xlink:href="#bd"/><use transform="matrix(0.05,0,0,0.05,51.300000000000004,0)" xlink:href="#aQ"/><use transform="matrix(0.05,0,0,0.05,55.25,0)" xlink:href="#aE"/><use transform="matrix(0.05,0,0,0.05,65.25,0)" xlink:href="#aF"/><use transform="matrix(0.05,0,0,0.05,75.25,0)" xlink:href="#aO"/><use transform="matrix(0.05,0,0,0.05,80.25,0)" xlink:href="#aH"/><use transform="matrix(0.05,0,0,0.05,90.25,0)" xlink:href="#aS"/><use transform="matrix(0.05,0,0,0.05,99.25,0)" xlink:href="#aD"/><use transform="matrix(0.05,0,0,0.05,105.59999999999998,0)" xlink:href="#aI"/></g><path d="M64 0c3-98 48-159 88-221H18v-27h164v26C143-157 98-101 97 0H64" id="bu"/><path d="M33 0v-38h34V0H33" id="bv"/><path d="M110-160c48 1 74 30 74 79 0 53-28 85-80 85-65 0-83-55-86-122-5-90 50-162 133-122 14 7 22 21 27 39l-31 6c-5-40-67-38-82-6-9 19-15 44-15 74 11-20 30-34 60-33zm-7 138c34 0 49-23 49-58s-16-56-50-56c-29 0-50 16-49 49 1 36 15 65 50 65" id="bw"/><path d="M54-142c48-35 137-8 131 61C196 18 31 33 14-55l32-4c7 23 22 37 52 37 35-1 51-22 54-58 4-55-73-65-99-34H22l8-134h141v27H59" id="bx"/><path d="M99-251c64 0 84 50 84 122C183-37 130 33 47-8c-14-7-20-23-25-40l30-5c6 39 69 39 84 7 9-19 16-44 16-74-10 22-31 35-62 35-49 0-73-33-73-83 0-54 28-83 82-83zm-1 141c31-1 51-18 51-49 0-36-14-67-51-67-34 0-49 23-49 58 0 34 15 58 49 58" id="by"/><g id="E"><use transform="matrix(0.05,0,0,0.05,0,0)" xlink:href="#aU"/><use transform="matrix(0.05,0,0,0.05,5,0)" xlink:href="#bn"/><use transform="matrix(0.05,0,0,0.05,10.95,0)" xlink:href="#aZ"/><use transform="matrix(0.05,0,0,0.05,20.95,0)" xlink:href="#bu"/><use transform="matrix(0.05,0,0,0.05,30.950000000000003,0)" xlink:href="#bv"/><use transform="matrix(0.05,0,0,0.05,35.95,0)" xlink:href="#bw"/><use transform="matrix(0.05,0,0,0.05,45.95,0)" xlink:href="#bx"/><use transform="matrix(0.05,0,0,0.05,55.95,0)" xlink:href="#by"/><use transform="matrix(0.05,0,0,0.05,65.95,0)" xlink:href="#aZ"/><use transform="matrix(0.05,0,0,0.05,75.95,0)" xlink:href="#aT"/></g><path d="M155-56V0h-30v-56H8v-25l114-167h33v167h35v25h-35zm-30-156c-27 46-58 90-88 131h88v-131" id="bz"/><g id="F"><use transform="matrix(0.05,0,0,0.05,0,0)" xlink:href="#bz"/><use transform="matrix(0.05,0,0,0.05,10,0)" xlink:href="#aW"/><use transform="matrix(0.05,0,0,0.05,20,0)" xlink:href="#bv"/><use transform="matrix(0.05,0,0,0.05,25,0)" xlink:href="#aZ"/><use transform="matrix(0.05,0,0,0.05,35,0)" xlink:href="#bu"/><use transform="matrix(0.05,0,0,0.05,45,0)" xlink:href="#aZ"/><use transform="matrix(0.05,0,0,0.05,55,0)" xlink:href="#aW"/><use transform="matrix(0.05,0,0,0.05,65,0)" xlink:href="#bc"/></g><use transform="matrix(0.05,0,0,0.05,0,0)" xlink:href="#br" id="H"/><path d="M88-194c31-1 46 15 58 34l-1-101h50l1 261h-48c-2-10 0-23-3-31C134-8 116 4 84 4 32 4 16-41 15-95c0-56 19-97 73-99zm17 164c33 0 40-30 41-66 1-37-9-64-41-64s-38 30-39 65c0 43 13 65 39 65" id="bA"/><g id="I"><use transform="matrix(0.05,0,0,0.05,0,0)" xlink:href="#bf"/><use transform="matrix(0.05,0,0,0.05,12.950000000000001,0)" xlink:href="#bj"/><use transform="matrix(0.05,0,0,0.05,23.900000000000002,0)" xlink:href="#bA"/><use transform="matrix(0.05,0,0,0.05,34.85,0)" xlink:href="#bg"/></g><g id="J"><use transform="matrix(0.05,0,0,0.05,0,0)" xlink:href="#bm"/><use transform="matrix(0.05,0,0,0.05,5,0)" xlink:href="#aS"/><use transform="matrix(0.05,0,0,0.05,14,0)" xlink:href="#aH"/><use transform="matrix(0.05,0,0,0.05,24,0)" xlink:href="#aE"/><use transform="matrix(0.05,0,0,0.05,34,0)" xlink:href="#aS"/><use transform="matrix(0.05,0,0,0.05,43,0)" xlink:href="#aM"/><use transform="matrix(0.05,0,0,0.05,53,0)" xlink:href="#aJ"/><use transform="matrix(0.05,0,0,0.05,58.95,0)" xlink:href="#bn"/><use transform="matrix(0.05,0,0,0.05,64.9,0)" xlink:href="#aE"/><use transform="matrix(0.05,0,0,0.05,74.9,0)" xlink:href="#aH"/><use transform="matrix(0.05,0,0,0.05,84.9,0)" xlink:href="#aO"/><use transform="matrix(0.05,0,0,0.05,89.9,0)" xlink:href="#bo"/><use transform="matrix(0.05,0,0,0.05,102.85000000000001,0)" xlink:href="#aM"/><use transform="matrix(0.05,0,0,0.05,112.85000000000001,0)" xlink:href="#aJ"/><use transform="matrix(0.05,0,0,0.05,118.80000000000001,0)" xlink:href="#bp"/><use transform="matrix(0.05,0,0,0.05,127.80000000000001,0)" xlink:href="#aS"/><use transform="matrix(0.05,0,0,0.05,136.8,0)" xlink:href="#bm"/><use transform="matrix(0.05,0,0,0.05,141.8,0)" xlink:href="#bq"/><use transform="matrix(0.05,0,0,0.05,147.8,0)" xlink:href="#aE"/><use transform="matrix(0.05,0,0,0.05,157.8,0)" xlink:href="#aH"/><use transform="matrix(0.05,0,0,0.05,167.8,0)" xlink:href="#aO"/><use transform="matrix(0.05,0,0,0.05,172.8,0)" xlink:href="#bo"/><use transform="matrix(0.05,0,0,0.05,185.75,0)" xlink:href="#aM"/><use transform="matrix(0.05,0,0,0.05,195.75,0)" xlink:href="#aJ"/><use transform="matrix(0.05,0,0,0.05,201.7,0)" xlink:href="#bp"/><use transform="matrix(0.05,0,0,0.05,210.69999999999996,0)" xlink:href="#aL"/><use transform="matrix(0.05,0,0,0.05,220.69999999999996,0)" xlink:href="#aE"/><use transform="matrix(0.05,0,0,0.05,230.69999999999996,0)" xlink:href="#aF"/><use transform="matrix(0.05,0,0,0.05,240.69999999999996,0)" xlink:href="#aG"/><use transform="matrix(0.05,0,0,0.05,255.64999999999998,0)" xlink:href="#aH"/><use transform="matrix(0.05,0,0,0.05,265.65,0)" xlink:href="#br"/><use transform="matrix(0.05,0,0,0.05,271.65,0)" xlink:href="#bm"/><use transform="matrix(0.05,0,0,0.05,276.65,0)" xlink:href="#aE"/><use transform="matrix(0.05,0,0,0.05,286.65,0)" xlink:href="#aM"/><use transform="matrix(0.05,0,0,0.05,296.65,0)" xlink:href="#bd"/><use transform="matrix(0.05,0,0,0.05,306.65,0)" xlink:href="#aH"/><use transform="matrix(0.05,0,0,0.05,316.65,0)" xlink:href="#aS"/></g><g id="K"><use transform="matrix(0.05,0,0,0.05,0,0)" xlink:href="#aD"/><use transform="matrix(0.05,0,0,0.05,6.3500000000000005,0)" xlink:href="#aE"/><use transform="matrix(0.05,0,0,0.05,16.35,0)" xlink:href="#aF"/><use transform="matrix(0.05,0,0,0.05,26.35,0)" xlink:href="#aG"/><use transform="matrix(0.05,0,0,0.05,41.300000000000004,0)" xlink:href="#aH"/><use transform="matrix(0.05,0,0,0.05,51.300000000000004,0)" xlink:href="#aD"/><use transform="matrix(0.05,0,0,0.05,57.650000000000006,0)" xlink:href="#aI"/></g><g id="L"><use transform="matrix(0.05,0,0,0.05,0,0)" xlink:href="#aD"/><use transform="matrix(0.05,0,0,0.05,6.3500000000000005,0)" xlink:href="#aO"/><use transform="matrix(0.05,0,0,0.05,11.350000000000001,0)" xlink:href="#aG"/><use transform="matrix(0.05,0,0,0.05,26.3,0)" xlink:href="#aV"/><use transform="matrix(0.05,0,0,0.05,36.300000000000004,0)" xlink:href="#aW"/><use transform="matrix(0.05,0,0,0.05,44.95,0)" xlink:href="#aW"/><use transform="matrix(0.05,0,0,0.05,54.95,0)" xlink:href="#aX"/><use transform="matrix(0.05,0,0,0.05,64.95,0)" xlink:href="#aD"/><use transform="matrix(0.05,0,0,0.05,71.3,0)" xlink:href="#aT"/></g><g id="M"><use transform="matrix(0.05,0,0,0.05,0,0)" xlink:href="#aD"/><use transform="matrix(0.05,0,0,0.05,6.3500000000000005,0)" xlink:href="#aV"/><use transform="matrix(0.05,0,0,0.05,16.35,0)" xlink:href="#aJ"/><use transform="matrix(0.05,0,0,0.05,22.3,0)" xlink:href="#aM"/><use transform="matrix(0.05,0,0,0.05,32.3,0)" xlink:href="#aV"/><use transform="matrix(0.05,0,0,0.05,42.3,0)" xlink:href="#aH"/><use transform="matrix(0.05,0,0,0.05,52.29999999999999,0)" xlink:href="#aJ"/><use transform="matrix(0.05,0,0,0.05,58.25,0)" xlink:href="#aO"/><use transform="matrix(0.05,0,0,0.05,63.25,0)" xlink:href="#aQ"/><use transform="matrix(0.05,0,0,0.05,67.2,0)" xlink:href="#aH"/><use transform="matrix(0.05,0,0,0.05,77.2,0)" xlink:href="#aS"/><use transform="matrix(0.05,0,0,0.05,86.2,0)" xlink:href="#aD"/><use transform="matrix(0.05,0,0,0.05,92.55,0)" xlink:href="#aI"/></g><g id="N"><use transform="matrix(0.05,0,0,0.05,0,0)" xlink:href="#aU"/><use transform="matrix(0.05,0,0,0.05,5,0)" xlink:href="#aD"/><use transform="matrix(0.05,0,0,0.05,11.350000000000001,0)" xlink:href="#aO"/><use transform="matrix(0.05,0,0,0.05,16.35,0)" xlink:href="#aH"/><use transform="matrix(0.05,0,0,0.05,26.35,0)" xlink:href="#aG"/><use transform="matrix(0.05,0,0,0.05,41.300000000000004,0)" xlink:href="#aV"/><use transform="matrix(0.05,0,0,0.05,51.300000000000004,0)" xlink:href="#aH"/><use transform="matrix(0.05,0,0,0.05,61.300000000000004,0)" xlink:href="#aJ"/><use transform="matrix(0.05,0,0,0.05,67.25,0)" xlink:href="#aF"/><use transform="matrix(0.05,0,0,0.05,77.25,0)" xlink:href="#aO"/><use transform="matrix(0.05,0,0,0.05,82.25,0)" xlink:href="#be"/><use transform="matrix(0.05,0,0,0.05,92.25,0)" xlink:href="#aJ"/><use transform="matrix(0.05,0,0,0.05,98.2,0)" xlink:href="#aH"/><use transform="matrix(0.05,0,0,0.05,108.2,0)" xlink:href="#bv"/><use transform="matrix(0.05,0,0,0.05,113.2,0)" xlink:href="#aO"/><use transform="matrix(0.05,0,0,0.05,118.2,0)" xlink:href="#aH"/><use transform="matrix(0.05,0,0,0.05,128.2,0)" xlink:href="#aG"/><use transform="matrix(0.05,0,0,0.05,143.14999999999998,0)" xlink:href="#aV"/><use transform="matrix(0.05,0,0,0.05,153.14999999999998,0)" xlink:href="#aH"/><use transform="matrix(0.05,0,0,0.05,163.14999999999998,0)" xlink:href="#aJ"/><use transform="matrix(0.05,0,0,0.05,169.09999999999997,0)" xlink:href="#aF"/><use transform="matrix(0.05,0,0,0.05,179.09999999999997,0)" xlink:href="#aO"/><use transform="matrix(0.05,0,0,0.05,184.09999999999997,0)" xlink:href="#be"/><use transform="matrix(0.05,0,0,0.05,194.09999999999997,0)" xlink:href="#aJ"/><use transform="matrix(0.05,0,0,0.05,200.04999999999995,0)" xlink:href="#aH"/><use transform="matrix(0.05,0,0,0.05,210.04999999999995,0)" xlink:href="#aD"/><use transform="matrix(0.05,0,0,0.05,216.39999999999998,0)" xlink:href="#bc"/></g><path d="M169-182c-1-43-94-46-97-3 18 66 151 10 154 114 3 95-165 93-204 36-6-8-10-19-12-30l50-8c3 46 112 56 116 5-17-69-150-10-154-114-4-87 153-88 188-35 5 8 8 18 10 28" id="bB"/><path d="M135-194c87-1 58 113 63 194h-50c-7-57 23-157-34-157-59 0-34 97-39 157H25l-1-190h47c2 12-1 28 3 38 12-26 28-41 61-42" id="bC"/><path d="M137-138c1-29-70-34-71-4 15 46 118 7 119 86 1 83-164 76-172 9l43-7c4 19 20 25 44 25 33 8 57-30 24-41C81-84 22-81 20-136c-2-80 154-74 161-7" id="bD"/><g id="O"><use transform="matrix(0.05,0,0,0.05,0,0)" xlink:href="#bB"/><use transform="matrix(0.05,0,0,0.05,12,0)" xlink:href="#bg"/><use transform="matrix(0.05,0,0,0.05,22,0)" xlink:href="#bC"/><use transform="matrix(0.05,0,0,0.05,32.95,0)" xlink:href="#bD"/><use transform="matrix(0.05,0,0,0.05,42.95,0)" xlink:href="#bj"/><use transform="matrix(0.05,0,0,0.05,53.900000000000006,0)" xlink:href="#bk"/></g><g id="Q"><use transform="matrix(0.05,0,0,0.05,0,0)" xlink:href="#bm"/><use transform="matrix(0.05,0,0,0.05,5,0)" xlink:href="#aS"/><use transform="matrix(0.05,0,0,0.05,14,0)" xlink:href="#aH"/><use transform="matrix(0.05,0,0,0.05,24,0)" xlink:href="#aE"/><use transform="matrix(0.05,0,0,0.05,34,0)" xlink:href="#aS"/><use transform="matrix(0.05,0,0,0.05,43,0)" xlink:href="#aM"/><use transform="matrix(0.05,0,0,0.05,53,0)" xlink:href="#aJ"/><use transform="matrix(0.05,0,0,0.05,58.95,0)" xlink:href="#bn"/><use transform="matrix(0.05,0,0,0.05,64.9,0)" xlink:href="#aE"/><use transform="matrix(0.05,0,0,0.05,74.9,0)" xlink:href="#aH"/><use transform="matrix(0.05,0,0,0.05,84.9,0)" xlink:href="#aO"/><use transform="matrix(0.05,0,0,0.05,89.9,0)" xlink:href="#bo"/><use transform="matrix(0.05,0,0,0.05,102.85000000000001,0)" xlink:href="#aM"/><use transform="matrix(0.05,0,0,0.05,112.85000000000001,0)" xlink:href="#aJ"/><use transform="matrix(0.05,0,0,0.05,118.80000000000001,0)" xlink:href="#bp"/><use transform="matrix(0.05,0,0,0.05,127.80000000000001,0)" xlink:href="#aS"/><use transform="matrix(0.05,0,0,0.05,136.8,0)" xlink:href="#bm"/><use transform="matrix(0.05,0,0,0.05,141.8,0)" xlink:href="#bq"/><use transform="matrix(0.05,0,0,0.05,147.8,0)" xlink:href="#aE"/><use transform="matrix(0.05,0,0,0.05,157.8,0)" xlink:href="#aH"/><use transform="matrix(0.05,0,0,0.05,167.8,0)" xlink:href="#aO"/><use transform="matrix(0.05,0,0,0.05,172.8,0)" xlink:href="#bo"/><use transform="matrix(0.05,0,0,0.05,185.75,0)" xlink:href="#aM"/><use transform="matrix(0.05,0,0,0.05,195.75,0)" xlink:href="#aJ"/><use transform="matrix(0.05,0,0,0.05,201.7,0)" xlink:href="#bp"/><use transform="matrix(0.05,0,0,0.05,210.69999999999996,0)" xlink:href="#aL"/><use transform="matrix(0.05,0,0,0.05,220.69999999999996,0)" xlink:href="#aE"/><use transform="matrix(0.05,0,0,0.05,230.69999999999996,0)" xlink:href="#aF"/><use transform="matrix(0.05,0,0,0.05,240.69999999999996,0)" xlink:href="#aG"/><use transform="matrix(0.05,0,0,0.05,255.64999999999998,0)" xlink:href="#aH"/><use transform="matrix(0.05,0,0,0.05,265.65,0)" xlink:href="#br"/><use transform="matrix(0.05,0,0,0.05,271.65,0)" xlink:href="#bm"/><use transform="matrix(0.05,0,0,0.05,276.65,0)" xlink:href="#aS"/><use transform="matrix(0.05,0,0,0.05,285.65,0)" xlink:href="#aH"/><use transform="matrix(0.05,0,0,0.05,295.65,0)" xlink:href="#aE"/><use transform="matrix(0.05,0,0,0.05,305.65,0)" xlink:href="#aS"/><use transform="matrix(0.05,0,0,0.05,314.65,0)" xlink:href="#aM"/><use transform="matrix(0.05,0,0,0.05,324.65,0)" xlink:href="#aJ"/><use transform="matrix(0.05,0,0,0.05,330.59999999999997,0)" xlink:href="#aS"/></g><g id="R"><use transform="matrix(0.05,0,0,0.05,0,0)" xlink:href="#aD"/><use transform="matrix(0.05,0,0,0.05,6.3500000000000005,0)" xlink:href="#aE"/><use transform="matrix(0.05,0,0,0.05,16.35,0)" xlink:href="#aF"/><use transform="matrix(0.05,0,0,0.05,26.35,0)" xlink:href="#aG"/><use transform="matrix(0.05,0,0,0.05,41.300000000000004,0)" xlink:href="#aH"/><use transform="matrix(0.05,0,0,0.05,51.300000000000004,0)" xlink:href="#aD"/><use transform="matrix(0.05,0,0,0.05,57.650000000000006,0)" xlink:href="#aI"/></g><g id="S"><use transform="matrix(0.05,0,0,0.05,0,0)" xlink:href="#aD"/><use transform="matrix(0.05,0,0,0.05,6.3500000000000005,0)" xlink:href="#aO"/><use transform="matrix(0.05,0,0,0.05,11.350000000000001,0)" xlink:href="#aH"/><use transform="matrix(0.05,0,0,0.05,21.35,0)" xlink:href="#aG"/><use transform="matrix(0.05,0,0,0.05,36.300000000000004,0)" xlink:href="#aV"/><use transform="matrix(0.05,0,0,0.05,46.300000000000004,0)" xlink:href="#aH"/><use transform="matrix(0.05,0,0,0.05,56.300000000000004,0)" xlink:href="#aJ"/><use transform="matrix(0.05,0,0,0.05,62.25,0)" xlink:href="#aF"/><use transform="matrix(0.05,0,0,0.05,72.25,0)" xlink:href="#aO"/><use transform="matrix(0.05,0,0,0.05,77.25,0)" xlink:href="#be"/><use transform="matrix(0.05,0,0,0.05,87.25,0)" xlink:href="#aJ"/><use transform="matrix(0.05,0,0,0.05,93.2,0)" xlink:href="#aH"/><use transform="matrix(0.05,0,0,0.05,103.2,0)" xlink:href="#aD"/><use transform="matrix(0.05,0,0,0.05,109.55000000000001,0)" xlink:href="#aT"/></g><use transform="matrix(0.05,0,0,0.05,0,0)" xlink:href="#aU" id="T"/><path d="M24 0v-261h32V0H24" id="bE"/><g id="W"><use transform="matrix(0.05,0,0,0.05,0,0)" xlink:href="#aD"/><use transform="matrix(0.05,0,0,0.05,6.3500000000000005,0)" xlink:href="#aN"/><use transform="matrix(0.05,0,0,0.05,11.350000000000001,0)" xlink:href="#bE"/><use transform="matrix(0.05,0,0,0.05,15.3,0)" xlink:href="#aM"/><use transform="matrix(0.05,0,0,0.05,25.3,0)" xlink:href="#aF"/><use transform="matrix(0.05,0,0,0.05,35.3,0)" xlink:href="#aO"/><use transform="matrix(0.05,0,0,0.05,40.3,0)" xlink:href="#aD"/><use transform="matrix(0.05,0,0,0.05,46.65,0)" xlink:href="#aT"/></g><g id="X"><use transform="matrix(0.05,0,0,0.05,0,0)" xlink:href="#aD"/><use transform="matrix(0.05,0,0,0.05,6.3500000000000005,0)" xlink:href="#aE"/><use transform="matrix(0.05,0,0,0.05,16.35,0)" xlink:href="#aF"/><use transform="matrix(0.05,0,0,0.05,26.35,0)" xlink:href="#aG"/><use transform="matrix(0.05,0,0,0.05,41.300000000000004,0)" xlink:href="#aH"/><use transform="matrix(0.05,0,0,0.05,51.300000000000004,0)" xlink:href="#aD"/><use transform="matrix(0.05,0,0,0.05,57.650000000000006,0)" xlink:href="#aI"/></g><g id="Y"><use transform="matrix(0.05,0,0,0.05,0,0)" xlink:href="#aD"/><use transform="matrix(0.05,0,0,0.05,6.3500000000000005,0)" xlink:href="#aQ"/><use transform="matrix(0.05,0,0,0.05,10.3,0)" xlink:href="#aE"/><use transform="matrix(0.05,0,0,0.05,20.3,0)" xlink:href="#aN"/><use transform="matrix(0.05,0,0,0.05,25.3,0)" xlink:href="#aM"/><use transform="matrix(0.05,0,0,0.05,35.3,0)" xlink:href="#aD"/><use transform="matrix(0.05,0,0,0.05,41.65,0)" xlink:href="#aI"/></g><g id="aa"><use transform="matrix(0.05,0,0,0.05,0,0)" xlink:href="#aD"/><use transform="matrix(0.05,0,0,0.05,6.3500000000000005,0)" xlink:href="#be"/><use transform="matrix(0.05,0,0,0.05,16.35,0)" xlink:href="#aE"/><use transform="matrix(0.05,0,0,0.05,26.35,0)" xlink:href="#aQ"/><use transform="matrix(0.05,0,0,0.05,30.3,0)" xlink:href="#aO"/><use transform="matrix(0.05,0,0,0.05,35.3,0)" xlink:href="#aD"/><use transform="matrix(0.05,0,0,0.05,41.65,0)" xlink:href="#aI"/></g><g id="ab"><use transform="matrix(0.05,0,0,0.05,0,0)" xlink:href="#aD"/><use transform="matrix(0.05,0,0,0.05,6.3500000000000005,0)" xlink:href="#bd"/><use transform="matrix(0.05,0,0,0.05,16.35,0)" xlink:href="#aH"/><use transform="matrix(0.05,0,0,0.05,26.35,0)" xlink:href="#aR"/><use transform="matrix(0.05,0,0,0.05,36.35,0)" xlink:href="#aJ"/><use transform="matrix(0.05,0,0,0.05,42.300000000000004,0)" xlink:href="#aH"/><use transform="matrix(0.05,0,0,0.05,52.300000000000004,0)" xlink:href="#aH"/><use transform="matrix(0.05,0,0,0.05,62.300000000000004,0)" xlink:href="#aS"/></g><g id="ac"><use transform="matrix(0.05,0,0,0.05,0,0)" xlink:href="#bt"/><use transform="matrix(0.05,0,0,0.05,9,0)" xlink:href="#aH"/><use transform="matrix(0.05,0,0,0.05,19,0)" xlink:href="#bE"/><use transform="matrix(0.05,0,0,0.05,22.95,0)" xlink:href="#aS"/><use transform="matrix(0.05,0,0,0.05,31.950000000000003,0)" xlink:href="#aQ"/><use transform="matrix(0.05,0,0,0.05,35.9,0)" xlink:href="#be"/><use transform="matrix(0.05,0,0,0.05,45.9,0)" xlink:href="#aS"/><use transform="matrix(0.05,0,0,0.05,54.900000000000006,0)" xlink:href="#aD"/></g><use transform="matrix(0.05,0,0,0.05,0,0)" xlink:href="#br" id="ad"/><use transform="matrix(0.05,0,0,0.05,0,0)" xlink:href="#bc" id="ae"/><path d="M76-208v77h127v40H76V0H24v-248h183v40H76" id="bF"/><path d="M133-34C117-15 103 5 69 4 32 3 11-16 11-54c-1-60 55-63 116-61 1-26-3-47-28-47-18 1-26 9-28 27l-52-2c7-38 36-58 82-57s74 22 75 68l1 82c-1 14 12 18 25 15v27c-30 8-71 5-69-32zm-48 3c29 0 43-24 42-57-32 0-66-3-65 30 0 17 8 27 23 27" id="bG"/><path d="M85 4C-2 5 27-109 22-190h50c7 57-23 150 33 157 60-5 35-97 40-157h50l1 190h-47c-2-12 1-28-3-38-12 25-28 42-61 42" id="bH"/><g id="af"><use transform="matrix(0.05,0,0,0.05,0,0)" xlink:href="#bF"/><use transform="matrix(0.05,0,0,0.05,10.950000000000001,0)" xlink:href="#bg"/><use transform="matrix(0.05,0,0,0.05,20.950000000000003,0)" xlink:href="#bG"/><use transform="matrix(0.05,0,0,0.05,30.950000000000003,0)" xlink:href="#bh"/><use transform="matrix(0.05,0,0,0.05,36.900000000000006,0)" xlink:href="#bH"/><use transform="matrix(0.05,0,0,0.05,47.85000000000001,0)" xlink:href="#bk"/><use transform="matrix(0.05,0,0,0.05,54.85,0)" xlink:href="#bg"/></g><path d="M121-226c-27-7-43 5-38 36h38v33H83V0H34v-157H6v-33h28c-9-59 32-81 87-68v32" id="bI"/><g id="ag"><use transform="matrix(0.05,0,0,0.05,0,0)" xlink:href="#bj"/><use transform="matrix(0.05,0,0,0.05,10.950000000000001,0)" xlink:href="#bI"/></g><path d="M24 0v-248h52V0H24" id="bJ"/><g id="ah"><use transform="matrix(0.05,0,0,0.05,0,0)" xlink:href="#bJ"/><use transform="matrix(0.05,0,0,0.05,5,0)" xlink:href="#bC"/><use transform="matrix(0.05,0,0,0.05,15.950000000000001,0)" xlink:href="#bh"/><use transform="matrix(0.05,0,0,0.05,21.900000000000002,0)" xlink:href="#bg"/><use transform="matrix(0.05,0,0,0.05,31.900000000000002,0)" xlink:href="#bk"/><use transform="matrix(0.05,0,0,0.05,38.900000000000006,0)" xlink:href="#bg"/><use transform="matrix(0.05,0,0,0.05,48.900000000000006,0)" xlink:href="#bD"/><use transform="matrix(0.05,0,0,0.05,58.900000000000006,0)" xlink:href="#bh"/></g><g id="ai"><use transform="matrix(0.05,0,0,0.05,0,0)" xlink:href="#bm"/><use transform="matrix(0.05,0,0,0.05,5,0)" xlink:href="#aS"/><use transform="matrix(0.05,0,0,0.05,14,0)" xlink:href="#aH"/><use transform="matrix(0.05,0,0,0.05,24,0)" xlink:href="#aE"/><use transform="matrix(0.05,0,0,0.05,34,0)" xlink:href="#aS"/><use transform="matrix(0.05,0,0,0.05,43,0)" xlink:href="#aM"/><use transform="matrix(0.05,0,0,0.05,53,0)" xlink:href="#aJ"/><use transform="matrix(0.05,0,0,0.05,58.95,0)" xlink:href="#bn"/><use transform="matrix(0.05,0,0,0.05,64.9,0)" xlink:href="#aE"/><use transform="matrix(0.05,0,0,0.05,74.9,0)" xlink:href="#aH"/><use transform="matrix(0.05,0,0,0.05,84.9,0)" xlink:href="#aO"/><use transform="matrix(0.05,0,0,0.05,89.9,0)" xlink:href="#bo"/><use transform="matrix(0.05,0,0,0.05,102.85000000000001,0)" xlink:href="#aM"/><use transform="matrix(0.05,0,0,0.05,112.85000000000001,0)" xlink:href="#aJ"/><use transform="matrix(0.05,0,0,0.05,118.80000000000001,0)" xlink:href="#bp"/><use transform="matrix(0.05,0,0,0.05,127.80000000000001,0)" xlink:href="#aS"/><use transform="matrix(0.05,0,0,0.05,136.8,0)" xlink:href="#bm"/><use transform="matrix(0.05,0,0,0.05,141.8,0)" xlink:href="#bq"/><use transform="matrix(0.05,0,0,0.05,147.8,0)" xlink:href="#aE"/><use transform="matrix(0.05,0,0,0.05,157.8,0)" xlink:href="#aH"/><use transform="matrix(0.05,0,0,0.05,167.8,0)" xlink:href="#aO"/><use transform="matrix(0.05,0,0,0.05,172.8,0)" xlink:href="#bo"/><use transform="matrix(0.05,0,0,0.05,185.75,0)" xlink:href="#aM"/><use transform="matrix(0.05,0,0,0.05,195.75,0)" xlink:href="#aJ"/><use transform="matrix(0.05,0,0,0.05,201.7,0)" xlink:href="#bp"/><use transform="matrix(0.05,0,0,0.05,210.69999999999996,0)" xlink:href="#aL"/><use transform="matrix(0.05,0,0,0.05,220.69999999999996,0)" xlink:href="#aE"/><use transform="matrix(0.05,0,0,0.05,230.69999999999996,0)" xlink:href="#aF"/><use transform="matrix(0.05,0,0,0.05,240.69999999999996,0)" xlink:href="#aG"/><use transform="matrix(0.05,0,0,0.05,255.64999999999998,0)" xlink:href="#aH"/><use transform="matrix(0.05,0,0,0.05,265.65,0)" xlink:href="#br"/><use transform="matrix(0.05,0,0,0.05,271.65,0)" xlink:href="#bm"/><use transform="matrix(0.05,0,0,0.05,276.65,0)" xlink:href="#aN"/><use transform="matrix(0.05,0,0,0.05,281.65,0)" xlink:href="#aH"/><use transform="matrix(0.05,0,0,0.05,291.65,0)" xlink:href="#aF"/><use transform="matrix(0.05,0,0,0.05,301.65,0)" xlink:href="#aO"/><use transform="matrix(0.05,0,0,0.05,306.65,0)" xlink:href="#be"/><use transform="matrix(0.05,0,0,0.05,316.65,0)" xlink:href="#aJ"/><use transform="matrix(0.05,0,0,0.05,322.59999999999997,0)" xlink:href="#aH"/><use transform="matrix(0.05,0,0,0.05,332.59999999999997,0)" xlink:href="#aS"/></g><g id="aj"><use transform="matrix(0.048148148148148155,0,0,0.048148148148148155,0,0)" xlink:href="#aD"/><use transform="matrix(0.048148148148148155,0,0,0.048148148148148155,6.114814814814816,0)" xlink:href="#aN"/><use transform="matrix(0.048148148148148155,0,0,0.048148148148148155,10.92962962962963,0)" xlink:href="#aH"/><use transform="matrix(0.048148148148148155,0,0,0.048148148148148155,20.559259259259264,0)" xlink:href="#aF"/><use transform="matrix(0.048148148148148155,0,0,0.048148148148148155,30.188888888888897,0)" xlink:href="#aO"/><use transform="matrix(0.048148148148148155,0,0,0.048148148148148155,35.003703703703714,0)" xlink:href="#be"/><use transform="matrix(0.048148148148148155,0,0,0.048148148148148155,44.63333333333335,0)" xlink:href="#aJ"/><use transform="matrix(0.048148148148148155,0,0,0.048148148148148155,50.36296296296297,0)" xlink:href="#aH"/><use transform="matrix(0.048148148148148155,0,0,0.048148148148148155,59.992592592592615,0)" xlink:href="#aL"/><use transform="matrix(0.048148148148148155,0,0,0.048148148148148155,69.62222222222223,0)" xlink:href="#aM"/><use transform="matrix(0.048148148148148155,0,0,0.048148148148148155,79.25185185185187,0)" xlink:href="#aN"/><use transform="matrix(0.048148148148148155,0,0,0.048148148148148155,84.06666666666668,0)" xlink:href="#aL"/><use transform="matrix(0.048148148148148155,0,0,0.048148148148148155,93.69629629629631,0)" xlink:href="#aQ"/><use transform="matrix(0.048148148148148155,0,0,0.048148148148148155,97.50000000000001,0)" xlink:href="#aE"/><use transform="matrix(0.048148148148148155,0,0,0.048148148148148155,107.12962962962965,0)" xlink:href="#aO"/><use transform="matrix(0.048148148148148155,0,0,0.048148148148148155,111.94444444444446,0)" xlink:href="#aH"/><use transform="matrix(0.048148148148148155,0,0,0.048148148148148155,121.57407407407409,0)" xlink:href="#aJ"/><use transform="matrix(0.048148148148148155,0,0,0.048148148148148155,127.30370370370372,0)" xlink:href="#aH"/><use transform="matrix(0.048148148148148155,0,0,0.048148148148148155,136.93333333333334,0)" xlink:href="#aS"/><use transform="matrix(0.048148148148148155,0,0,0.048148148148148155,145.6,0)" xlink:href="#aO"/><use transform="matrix(0.048148148148148155,0,0,0.048148148148148155,150.4148148148148,0)" xlink:href="#aD"/><use transform="matrix(0.048148148148148155,0,0,0.048148148148148155,156.52962962962962,0)" xlink:href="#aI"/></g><g id="ak"><use transform="matrix(0.048148148148148155,0,0,0.048148148148148155,0,0)" xlink:href="#aD"/><use transform="matrix(0.048148148148148155,0,0,0.048148148148148155,6.114814814814816,0)" xlink:href="#aO"/><use transform="matrix(0.048148148148148155,0,0,0.048148148148148155,10.92962962962963,0)" xlink:href="#aH"/><use transform="matrix(0.048148148148148155,0,0,0.048148148148148155,20.559259259259264,0)" xlink:href="#aG"/><use transform="matrix(0.048148148148148155,0,0,0.048148148148148155,34.95555555555556,0)" xlink:href="#aV"/><use transform="matrix(0.048148148148148155,0,0,0.048148148148148155,44.585185185185196,0)" xlink:href="#aH"/><use transform="matrix(0.048148148148148155,0,0,0.048148148148148155,54.21481481481484,0)" xlink:href="#aJ"/><use transform="matrix(0.048148148148148155,0,0,0.048148148148148155,59.94444444444445,0)" xlink:href="#aF"/><use transform="matrix(0.048148148148148155,0,0,0.048148148148148155,69.57407407407409,0)" xlink:href="#aO"/><use transform="matrix(0.048148148148148155,0,0,0.048148148148148155,74.3888888888889,0)" xlink:href="#be"/><use transform="matrix(0.048148148148148155,0,0,0.048148148148148155,84.01851851851853,0)" xlink:href="#aJ"/><use transform="matrix(0.048148148148148155,0,0,0.048148148148148155,89.74814814814816,0)" xlink:href="#aH"/><use transform="matrix(0.048148148148148155,0,0,0.048148148148148155,99.3777777777778,0)" xlink:href="#aD"/><use transform="matrix(0.048148148148148155,0,0,0.048148148148148155,105.49259259259262,0)" xlink:href="#aT"/></g><g id="al"><use transform="matrix(0.048148148148148155,0,0,0.048148148148148155,0,0)" xlink:href="#aD"/><use transform="matrix(0.048148148148148155,0,0,0.048148148148148155,6.114814814814816,0)" xlink:href="#aE"/><use transform="matrix(0.048148148148148155,0,0,0.048148148148148155,15.744444444444447,0)" xlink:href="#aM"/><use transform="matrix(0.048148148148148155,0,0,0.048148148148148155,25.374074074074077,0)" xlink:href="#bd"/><use transform="matrix(0.048148148148148155,0,0,0.048148148148148155,35.003703703703714,0)" xlink:href="#aH"/><use transform="matrix(0.048148148148148155,0,0,0.048148148148148155,44.63333333333335,0)" xlink:href="#aL"/><use transform="matrix(0.048148148148148155,0,0,0.048148148148148155,54.26296296296298,0)" xlink:href="#aQ"/><use transform="matrix(0.048148148148148155,0,0,0.048148148148148155,58.066666666666684,0)" xlink:href="#bd"/><use transform="matrix(0.048148148148148155,0,0,0.048148148148148155,67.69629629629631,0)" xlink:href="#aD"/><use transform="matrix(0.048148148148148155,0,0,0.048148148148148155,73.81111111111113,0)" xlink:href="#aI"/></g><g id="am"><use transform="matrix(0.048148148148148155,0,0,0.048148148148148155,0,0)" xlink:href="#aD"/><use transform="matrix(0.048148148148148155,0,0,0.048148148148148155,6.114814814814816,0)" xlink:href="#ba"/><use transform="matrix(0.048148148148148155,0,0,0.048148148148148155,15.744444444444447,0)" xlink:href="#ba"/><use transform="matrix(0.048148148148148155,0,0,0.048148148148148155,25.374074074074077,0)" xlink:href="#aW"/><use transform="matrix(0.048148148148148155,0,0,0.048148148148148155,35.003703703703714,0)" xlink:href="#aD"/><use transform="matrix(0.048148148148148155,0,0,0.048148148148148155,41.11851851851853,0)" xlink:href="#aT"/></g><g id="an"><use transform="matrix(0.048148148148148155,0,0,0.048148148148148155,0,0)" xlink:href="#aD"/><use transform="matrix(0.048148148148148155,0,0,0.048148148148148155,6.114814814814816,0)" xlink:href="#aS"/><use transform="matrix(0.048148148148148155,0,0,0.048148148148148155,14.781481481481483,0)" xlink:href="#aH"/><use transform="matrix(0.048148148148148155,0,0,0.048148148148148155,24.411111111111115,0)" xlink:href="#aE"/><use transform="matrix(0.048148148148148155,0,0,0.048148148148148155,34.040740740740745,0)" xlink:href="#aS"/><use transform="matrix(0.048148148148148155,0,0,0.048148148148148155,42.707407407407416,0)" xlink:href="#aM"/><use transform="matrix(0.048148148148148155,0,0,0.048148148148148155,52.33703703703704,0)" xlink:href="#aJ"/><use transform="matrix(0.048148148148148155,0,0,0.048148148148148155,58.06666666666668,0)" xlink:href="#aD"/><use transform="matrix(0.048148148148148155,0,0,0.048148148148148155,64.1814814814815,0)" xlink:href="#aI"/></g><g id="ao"><use transform="matrix(0.048148148148148155,0,0,0.048148148148148155,0,0)" xlink:href="#aD"/><use transform="matrix(0.048148148148148155,0,0,0.048148148148148155,6.114814814814816,0)" xlink:href="#aP"/><use transform="matrix(0.048148148148148155,0,0,0.048148148148148155,15.744444444444447,0)" xlink:href="#aO"/><use transform="matrix(0.048148148148148155,0,0,0.048148148148148155,20.559259259259264,0)" xlink:href="#be"/><use transform="matrix(0.048148148148148155,0,0,0.048148148148148155,30.188888888888897,0)" xlink:href="#aX"/><use transform="matrix(0.048148148148148155,0,0,0.048148148148148155,39.81851851851853,0)" xlink:href="#aW"/><use transform="matrix(0.048148148148148155,0,0,0.048148148148148155,49.448148148148164,0)" xlink:href="#bd"/><use transform="matrix(0.048148148148148155,0,0,0.048148148148148155,59.0777777777778,0)" xlink:href="#aD"/><use transform="matrix(0.048148148148148155,0,0,0.048148148148148155,65.19259259259262,0)" xlink:href="#aT"/></g><g id="ap"><use transform="matrix(0.048148148148148155,0,0,0.048148148148148155,0,0)" xlink:href="#aD"/><use transform="matrix(0.048148148148148155,0,0,0.048148148148148155,6.114814814814816,0)" xlink:href="#bd"/><use transform="matrix(0.048148148148148155,0,0,0.048148148148148155,15.744444444444447,0)" xlink:href="#aF"/><use transform="matrix(0.048148148148148155,0,0,0.048148148148148155,25.374074074074077,0)" xlink:href="#aO"/><use transform="matrix(0.048148148148148155,0,0,0.048148148148148155,30.188888888888897,0)" xlink:href="#aH"/><use transform="matrix(0.048148148148148155,0,0,0.048148148148148155,39.81851851851853,0)" xlink:href="#aO"/><use transform="matrix(0.048148148148148155,0,0,0.048148148148148155,44.63333333333335,0)" xlink:href="#aQ"/><use transform="matrix(0.048148148148148155,0,0,0.048148148148148155,48.43703703703705,0)" xlink:href="#aG"/><use transform="matrix(0.048148148148148155,0,0,0.048148148148148155,62.83333333333336,0)" xlink:href="#aH"/><use transform="matrix(0.048148148148148155,0,0,0.048148148148148155,72.46296296296298,0)" xlink:href="#aD"/><use transform="matrix(0.048148148148148155,0,0,0.048148148148148155,78.5777777777778,0)" xlink:href="#aI"/></g><path d="M127-220V0H93v-220H8v-28h204v28h-85" id="bK"/><g id="aq"><use transform="matrix(0.048148148148148155,0,0,0.048148148148148155,0,0)" xlink:href="#aD"/><use transform="matrix(0.048148148148148155,0,0,0.048148148148148155,6.114814814814816,0)" xlink:href="#aX"/><use transform="matrix(0.048148148148148155,0,0,0.048148148148148155,15.744444444444447,0)" xlink:href="#ba"/><use transform="matrix(0.048148148148148155,0,0,0.048148148148148155,25.374074074074077,0)" xlink:href="#aW"/><use transform="matrix(0.048148148148148155,0,0,0.048148148148148155,35.003703703703714,0)" xlink:href="#bw"/><use transform="matrix(0.048148148148148155,0,0,0.048148148148148155,44.63333333333335,0)" xlink:href="#bn"/><use transform="matrix(0.048148148148148155,0,0,0.048148148148148155,50.36296296296297,0)" xlink:href="#ba"/><use transform="matrix(0.048148148148148155,0,0,0.048148148148148155,59.992592592592615,0)" xlink:href="#aZ"/><use transform="matrix(0.048148148148148155,0,0,0.048148148148148155,69.62222222222223,0)" xlink:href="#bn"/><use transform="matrix(0.048148148148148155,0,0,0.048148148148148155,75.35185185185186,0)" xlink:href="#aX"/><use transform="matrix(0.048148148148148155,0,0,0.048148148148148155,84.9814814814815,0)" xlink:href="#bx"/><use transform="matrix(0.048148148148148155,0,0,0.048148148148148155,94.61111111111113,0)" xlink:href="#bK"/><use transform="matrix(0.048148148148148155,0,0,0.048148148148148155,105.15555555555557,0)" xlink:href="#ba"/><use transform="matrix(0.048148148148148155,0,0,0.048148148148148155,114.78518518518523,0)" xlink:href="#ba"/><use transform="matrix(0.048148148148148155,0,0,0.048148148148148155,124.41481481481486,0)" xlink:href="#aI"/><use transform="matrix(0.048148148148148155,0,0,0.048148148148148155,129.22962962962967,0)" xlink:href="#bx"/><use transform="matrix(0.048148148148148155,0,0,0.048148148148148155,138.8592592592593,0)" xlink:href="#bz"/><use transform="matrix(0.048148148148148155,0,0,0.048148148148148155,148.4888888888889,0)" xlink:href="#aI"/><use transform="matrix(0.048148148148148155,0,0,0.048148148148148155,153.30370370370372,0)" xlink:href="#aW"/><use transform="matrix(0.048148148148148155,0,0,0.048148148148148155,162.93333333333334,0)" xlink:href="#aZ"/><use transform="matrix(0.048148148148148155,0,0,0.048148148148148155,172.56296296296296,0)" xlink:href="#aD"/></g><g id="ar"><use transform="matrix(0.048148148148148155,0,0,0.048148148148148155,0,0)" xlink:href="#aD"/><use transform="matrix(0.048148148148148155,0,0,0.048148148148148155,6.114814814814816,0)" xlink:href="#aJ"/><use transform="matrix(0.048148148148148155,0,0,0.048148148148148155,11.844444444444445,0)" xlink:href="#aH"/><use transform="matrix(0.048148148148148155,0,0,0.048148148148148155,21.474074074074075,0)" xlink:href="#aS"/><use transform="matrix(0.048148148148148155,0,0,0.048148148148148155,30.140740740740746,0)" xlink:href="#be"/><use transform="matrix(0.048148148148148155,0,0,0.048148148148148155,39.77037037037037,0)" xlink:href="#bE"/><use transform="matrix(0.048148148148148155,0,0,0.048148148148148155,43.574074074074076,0)" xlink:href="#aO"/><use transform="matrix(0.048148148148148155,0,0,0.048148148148148155,48.38888888888889,0)" xlink:href="#aS"/><use transform="matrix(0.048148148148148155,0,0,0.048148148148148155,57.05555555555555,0)" xlink:href="#aD"/><use transform="matrix(0.048148148148148155,0,0,0.048148148148148155,63.17037037037037,0)" xlink:href="#aI"/></g><use transform="matrix(0.048148148148148155,0,0,0.048148148148148155,0,0)" xlink:href="#bq" id="as"/><g id="au"><use transform="matrix(0.048148148148148155,0,0,0.048148148148148155,0,0)" xlink:href="#aD"/><use transform="matrix(0.048148148148148155,0,0,0.048148148148148155,6.114814814814816,0)" xlink:href="#aO"/><use transform="matrix(0.048148148148148155,0,0,0.048148148148148155,10.92962962962963,0)" xlink:href="#aH"/><use transform="matrix(0.048148148148148155,0,0,0.048148148148148155,20.559259259259264,0)" xlink:href="#aG"/><use transform="matrix(0.048148148148148155,0,0,0.048148148148148155,34.95555555555556,0)" xlink:href="#aV"/><use transform="matrix(0.048148148148148155,0,0,0.048148148148148155,44.585185185185196,0)" xlink:href="#aH"/><use transform="matrix(0.048148148148148155,0,0,0.048148148148148155,54.21481481481484,0)" xlink:href="#aJ"/><use transform="matrix(0.048148148148148155,0,0,0.048148148148148155,59.94444444444445,0)" xlink:href="#aF"/><use transform="matrix(0.048148148148148155,0,0,0.048148148148148155,69.57407407407409,0)" xlink:href="#aO"/><use transform="matrix(0.048148148148148155,0,0,0.048148148148148155,74.3888888888889,0)" xlink:href="#be"/><use transform="matrix(0.048148148148148155,0,0,0.048148148148148155,84.01851851851853,0)" xlink:href="#aJ"/><use transform="matrix(0.048148148148148155,0,0,0.048148148148148155,89.74814814814816,0)" xlink:href="#aH"/><use transform="matrix(0.048148148148148155,0,0,0.048148148148148155,99.3777777777778,0)" xlink:href="#aD"/><use transform="matrix(0.048148148148148155,0,0,0.048148148148148155,105.49259259259262,0)" xlink:href="#aI"/></g><path d="M126-127c33 6 58 20 58 59 0 88-139 92-164 29-3-8-5-16-6-25l32-3c6 27 21 44 54 44 32 0 52-15 52-46 0-38-36-46-79-43v-28c39 1 72-4 72-42 0-27-17-43-46-43-28 0-47 15-49 41l-32-3c6-42 35-63 81-64 48-1 79 21 79 65 0 36-21 52-52 59" id="bL"/><g id="av"><use transform="matrix(0.048148148148148155,0,0,0.048148148148148155,0,0)" xlink:href="#bL"/><use transform="matrix(0.048148148148148155,0,0,0.048148148148148155,9.629629629629632,0)" xlink:href="#ba"/><use transform="matrix(0.048148148148148155,0,0,0.048148148148148155,19.259259259259263,0)" xlink:href="#bv"/><use transform="matrix(0.048148148148148155,0,0,0.048148148148148155,24.07407407407408,0)" xlink:href="#aW"/><use transform="matrix(0.048148148148148155,0,0,0.048148148148148155,33.70370370370371,0)" xlink:href="#aX"/></g><use transform="matrix(0.048148148148148155,0,0,0.048148148148148155,0,0)" xlink:href="#br" id="aw"/><path d="M140-251c80 0 125 45 125 126S219 4 139 4C58 4 15-44 15-125s44-126 125-126zm-1 214c52 0 73-35 73-88 0-50-21-86-72-86-52 0-73 35-73 86s22 88 72 88" id="bM"/><path d="M135-194c52 0 70 43 70 98 0 56-19 99-73 100-30 1-46-15-58-35L72 0H24l1-261h50v104c11-23 29-37 60-37zM114-30c31 0 40-27 40-66 0-37-7-63-39-63s-41 28-41 65c0 36 8 64 40 64" id="bN"/><path d="M128 0H69L1-190h53L99-40l48-150h52" id="bO"/><path d="M25-224v-37h50v37H25zM25 0v-190h50V0H25" id="bP"/><g id="ax"><use transform="matrix(0.05,0,0,0.05,0,0)" xlink:href="#bM"/><use transform="matrix(0.05,0,0,0.05,14,0)" xlink:href="#bN"/><use transform="matrix(0.05,0,0,0.05,24.950000000000003,0)" xlink:href="#bD"/><use transform="matrix(0.05,0,0,0.05,34.95,0)" xlink:href="#bg"/><use transform="matrix(0.05,0,0,0.05,44.95,0)" xlink:href="#bk"/><use transform="matrix(0.05,0,0,0.05,51.95,0)" xlink:href="#bO"/><use transform="matrix(0.05,0,0,0.05,61.95,0)" xlink:href="#bG"/><use transform="matrix(0.05,0,0,0.05,71.95,0)" xlink:href="#bh"/><use transform="matrix(0.05,0,0,0.05,77.9,0)" xlink:href="#bP"/><use transform="matrix(0.05,0,0,0.05,82.9,0)" xlink:href="#bj"/><use transform="matrix(0.05,0,0,0.05,93.85000000000001,0)" xlink:href="#bC"/></g><g id="ay"><use transform="matrix(0.05,0,0,0.05,0,0)" xlink:href="#bm"/><use transform="matrix(0.05,0,0,0.05,5,0)" xlink:href="#aS"/><use transform="matrix(0.05,0,0,0.05,14,0)" xlink:href="#aH"/><use transform="matrix(0.05,0,0,0.05,24,0)" xlink:href="#aE"/><use transform="matrix(0.05,0,0,0.05,34,0)" xlink:href="#aS"/><use transform="matrix(0.05,0,0,0.05,43,0)" xlink:href="#aM"/><use transform="matrix(0.05,0,0,0.05,53,0)" xlink:href="#aJ"/><use transform="matrix(0.05,0,0,0.05,58.95,0)" xlink:href="#bn"/><use transform="matrix(0.05,0,0,0.05,64.9,0)" xlink:href="#aE"/><use transform="matrix(0.05,0,0,0.05,74.9,0)" xlink:href="#aH"/><use transform="matrix(0.05,0,0,0.05,84.9,0)" xlink:href="#aO"/><use transform="matrix(0.05,0,0,0.05,89.9,0)" xlink:href="#bo"/><use transform="matrix(0.05,0,0,0.05,102.85000000000001,0)" xlink:href="#aM"/><use transform="matrix(0.05,0,0,0.05,112.85000000000001,0)" xlink:href="#aJ"/><use transform="matrix(0.05,0,0,0.05,118.80000000000001,0)" xlink:href="#bp"/><use transform="matrix(0.05,0,0,0.05,127.80000000000001,0)" xlink:href="#aS"/><use transform="matrix(0.05,0,0,0.05,136.8,0)" xlink:href="#bm"/><use transform="matrix(0.05,0,0,0.05,141.8,0)" xlink:href="#bq"/><use transform="matrix(0.05,0,0,0.05,147.8,0)" xlink:href="#aE"/><use transform="matrix(0.05,0,0,0.05,157.8,0)" xlink:href="#aH"/><use transform="matrix(0.05,0,0,0.05,167.8,0)" xlink:href="#aO"/><use transform="matrix(0.05,0,0,0.05,172.8,0)" xlink:href="#bo"/><use transform="matrix(0.05,0,0,0.05,185.75,0)" xlink:href="#aM"/><use transform="matrix(0.05,0,0,0.05,195.75,0)" xlink:href="#aJ"/><use transform="matrix(0.05,0,0,0.05,201.7,0)" xlink:href="#bp"/><use transform="matrix(0.05,0,0,0.05,210.69999999999996,0)" xlink:href="#aL"/><use transform="matrix(0.05,0,0,0.05,220.69999999999996,0)" xlink:href="#aE"/><use transform="matrix(0.05,0,0,0.05,230.69999999999996,0)" xlink:href="#aF"/><use transform="matrix(0.05,0,0,0.05,240.69999999999996,0)" xlink:href="#aG"/><use transform="matrix(0.05,0,0,0.05,255.64999999999998,0)" xlink:href="#aH"/><use transform="matrix(0.05,0,0,0.05,265.65,0)" xlink:href="#br"/><use transform="matrix(0.05,0,0,0.05,271.65,0)" xlink:href="#bm"/><use transform="matrix(0.05,0,0,0.05,276.65,0)" xlink:href="#bb"/><use transform="matrix(0.05,0,0,0.05,286.65,0)" xlink:href="#be"/><use transform="matrix(0.05,0,0,0.05,296.65,0)" xlink:href="#aH"/><use transform="matrix(0.05,0,0,0.05,306.65,0)" xlink:href="#aJ"/><use transform="matrix(0.05,0,0,0.05,312.59999999999997,0)" xlink:href="#aK"/></g><path d="M197 0v-115H63V0H30v-248h33v105h134v-105h34V0h-34" id="bQ"/><g id="az"><use transform="matrix(0.05,0,0,0.05,0,0)" xlink:href="#bQ"/><use transform="matrix(0.05,0,0,0.05,12.950000000000001,0)" xlink:href="#aF"/><use transform="matrix(0.05,0,0,0.05,22.950000000000003,0)" xlink:href="#aS"/></g><g id="aA"><use transform="matrix(0.05,0,0,0.05,0,0)" xlink:href="#aG"/><use transform="matrix(0.05,0,0,0.05,14.950000000000001,0)" xlink:href="#aF"/><use transform="matrix(0.05,0,0,0.05,24.950000000000003,0)" xlink:href="#aE"/><use transform="matrix(0.05,0,0,0.05,34.95,0)" xlink:href="#aK"/></g><path d="M143 4C61 4 22-44 18-125c-5-107 100-154 193-111 17 8 29 25 37 43l-32 9c-13-25-37-40-76-40-61 0-88 39-88 99 0 61 29 100 91 101 35 0 62-11 79-27v-45h-74v-28h105v86C228-13 192 4 143 4" id="bR"/><g id="aB"><use transform="matrix(0.05,0,0,0.05,0,0)" xlink:href="#bR"/><use transform="matrix(0.05,0,0,0.05,14,0)" xlink:href="#aH"/><use transform="matrix(0.05,0,0,0.05,24,0)" xlink:href="#aE"/><use transform="matrix(0.05,0,0,0.05,34,0)" xlink:href="#aH"/><use transform="matrix(0.05,0,0,0.05,44,0)" xlink:href="#aJ"/><use transform="matrix(0.05,0,0,0.05,49.95,0)" xlink:href="#aF"/><use transform="matrix(0.05,0,0,0.05,59.95,0)" xlink:href="#aO"/><use transform="matrix(0.05,0,0,0.05,64.95,0)" xlink:href="#aH"/><use transform="matrix(0.05,0,0,0.05,74.95,0)" xlink:href="#aS"/></g><path d="M30-248c118-7 216 8 213 122C240-48 200 0 122 0H30v-248zM63-27c89 8 146-16 146-99s-60-101-146-95v194" id="bS"/><g id="aC"><use transform="matrix(0.05,0,0,0.05,0,0)" xlink:href="#bS"/><use transform="matrix(0.05,0,0,0.05,12.950000000000001,0)" xlink:href="#aH"/><use transform="matrix(0.05,0,0,0.05,22.950000000000003,0)" xlink:href="#aN"/><use transform="matrix(0.05,0,0,0.05,27.950000000000003,0)" xlink:href="#aQ"/><use transform="matrix(0.05,0,0,0.05,31.900000000000002,0)" xlink:href="#aE"/><use transform="matrix(0.05,0,0,0.05,41.900000000000006,0)" xlink:href="#aH"/><use transform="matrix(0.05,0,0,0.05,51.900000000000006,0)" xlink:href="#aS"/></g></defs></g></svg>